ISO-10303-21;
HEADER;
FILE_DESCRIPTION(('STEP AP242'),
    '1');
FILE_NAME('button',
    '2026-09-04T06:15:58',
    (''),
    ('HP Inc.'),
    'C3D Converter',
    'C3D Toolkit',
    '');
/**/
FILE_SCHEMA(('AP242_MANAGED_MODEL_BASED_3D_ENGINEERING_MIM_LF { 1 0 10303 442 1 1 4 }'));
ENDSEC;

DATA;
#1=PRODUCT_DEFINITION('','UNSPECIFIED',#28,#31);
#2=SHAPE_DEFINITION_REPRESENTATION(#26,#3);
#3=SHAPE_REPRESENTATION('NONE',(#4),#8);
#4=AXIS2_PLACEMENT_3D('',#5,#6,#7);
#5=CARTESIAN_POINT('',(0.,0.,0.));
#6=DIRECTION('',(0.,0.,1.));
#7=DIRECTION('',(1.,0.,0.));
#8=(GEOMETRIC_REPRESENTATION_CONTEXT(3)GLOBAL_UNCERTAINTY_ASSIGNED_CONTEXT((#10))
GLOBAL_UNIT_ASSIGNED_CONTEXT((#9,#11,#12))REPRESENTATION_CONTEXT('NONE','NONE'));
#9=(LENGTH_UNIT()NAMED_UNIT(*)SI_UNIT(.MILLI.,.METRE.));
#10=UNCERTAINTY_MEASURE_WITH_UNIT(LENGTH_MEASURE(1.E-5),#9,'NONE','NONE');
#11=(NAMED_UNIT(*)PLANE_ANGLE_UNIT()SI_UNIT($,.RADIAN.));
#12=(NAMED_UNIT(*)SI_UNIT($,.STERADIAN.)SOLID_ANGLE_UNIT());
#13=MANIFOLD_SOLID_BREP('',#14);
#14=CLOSED_SHELL('',(#53,#62,#71,#80,#89));
#15=COLOUR_RGB('',0.564705882352941,0.564705882352941,0.564705882352941);
#16=FILL_AREA_STYLE_COLOUR('',#15);
#17=FILL_AREA_STYLE($,(#16));
#18=SURFACE_STYLE_FILL_AREA(#17);
#19=SURFACE_SIDE_STYLE('',(#18));
#20=SURFACE_STYLE_USAGE(.BOTH.,#19);
#21=PRESENTATION_STYLE_ASSIGNMENT((#20));
#22=MECHANICAL_DESIGN_GEOMETRIC_PRESENTATION_REPRESENTATION('NONE',(#23,#61,#70,
#79,#88,#97),#8);
#23=STYLED_ITEM('',(#21),#13);
#24=ADVANCED_BREP_SHAPE_REPRESENTATION('NONE',(#13),#8);
#25=SHAPE_REPRESENTATION_RELATIONSHIP('','',#3,#24);
#26=PRODUCT_DEFINITION_SHAPE('NONE','NONE',#1);
#27=MECHANICAL_CONTEXT('NONE',#32,'mechanical');
#28=PRODUCT_DEFINITION_FORMATION_WITH_SPECIFIED_SOURCE('ANY','UNSPECIFIED',#29,.NOT_KNOWN.);
#29=PRODUCT('','\X2\0414043504420430043B044C\X0\','NONE',(#27));
#30=PRODUCT_RELATED_PRODUCT_CATEGORY('detail','',(#29));
#31=DESIGN_CONTEXT('detailed design',#32,'design');
#32=APPLICATION_CONTEXT('configuration controlled 3d designs of mechanical parts and assemblies');
#33=APPLICATION_PROTOCOL_DEFINITION('international standard','config_control_design',
1994,#32);
#34=CC_DESIGN_DATE_AND_TIME_ASSIGNMENT(#35,#39,(#1));
#35=DATE_AND_TIME(#36,#37);
#36=CALENDAR_DATE(0,1,1);
#37=LOCAL_TIME(0,0,0.,#38);
#38=COORDINATED_UNIVERSAL_TIME_OFFSET(0,0,.AHEAD.);
#39=DATE_TIME_ROLE('creation_date');
#40=CC_DESIGN_APPROVAL(#41,(#1));
#41=APPROVAL(#42,'UNSPECIFIED');
#42=APPROVAL_STATUS('not_yet_approved');
#43=APPROVAL_DATE_TIME(#44,#41);
#44=DATE_AND_TIME(#45,#46);
#45=CALENDAR_DATE(0,1,1);
#46=LOCAL_TIME(0,0,0.,#47);
#47=COORDINATED_UNIVERSAL_TIME_OFFSET(0,0,.AHEAD.);
#48=PERSON('UNSPECIFIED','','UNSPECIFIED',('UNSPECIFIED'),('UNSPECIFIED'),
('UNSPECIFIED'));
#49=ORGANIZATION('UNSPECIFIED','HP Inc.','UNSPECIFIED');
#50=PERSON_AND_ORGANIZATION(#48,#49);
#51=PERSON_AND_ORGANIZATION_ROLE('creator');
#52=CC_DESIGN_PERSON_AND_ORGANIZATION_ASSIGNMENT(#50,#51,(#28,#1));
#53=ADVANCED_FACE('',(#98,#100),#102,.T.);
#54=COLOUR_RGB('',0.564705882352941,0.564705882352941,0.564705882352941);
#55=FILL_AREA_STYLE_COLOUR('',#54);
#56=FILL_AREA_STYLE($,(#55));
#57=SURFACE_STYLE_FILL_AREA(#56);
#58=SURFACE_SIDE_STYLE('',(#57));
#59=SURFACE_STYLE_USAGE(.BOTH.,#58);
#60=PRESENTATION_STYLE_ASSIGNMENT((#59));
#61=STYLED_ITEM('',(#60),#53);
#62=ADVANCED_FACE('',(#107,#109),#111,.F.);
#63=COLOUR_RGB('',0.564705882352941,0.564705882352941,0.564705882352941);
#64=FILL_AREA_STYLE_COLOUR('',#63);
#65=FILL_AREA_STYLE($,(#64));
#66=SURFACE_STYLE_FILL_AREA(#65);
#67=SURFACE_SIDE_STYLE('',(#66));
#68=SURFACE_STYLE_USAGE(.BOTH.,#67);
#69=PRESENTATION_STYLE_ASSIGNMENT((#68));
#70=STYLED_ITEM('',(#69),#62);
#71=ADVANCED_FACE('',(#116,#118),#120,.T.);
#72=COLOUR_RGB('',0.564705882352941,0.564705882352941,0.564705882352941);
#73=FILL_AREA_STYLE_COLOUR('',#72);
#74=FILL_AREA_STYLE($,(#73));
#75=SURFACE_STYLE_FILL_AREA(#74);
#76=SURFACE_SIDE_STYLE('',(#75));
#77=SURFACE_STYLE_USAGE(.BOTH.,#76);
#78=PRESENTATION_STYLE_ASSIGNMENT((#77));
#79=STYLED_ITEM('',(#78),#71);
#80=ADVANCED_FACE('',(#125),#127,.T.);
#81=COLOUR_RGB('',0.564705882352941,0.564705882352941,0.564705882352941);
#82=FILL_AREA_STYLE_COLOUR('',#81);
#83=FILL_AREA_STYLE($,(#82));
#84=SURFACE_STYLE_FILL_AREA(#83);
#85=SURFACE_SIDE_STYLE('',(#84));
#86=SURFACE_STYLE_USAGE(.BOTH.,#85);
#87=PRESENTATION_STYLE_ASSIGNMENT((#86));
#88=STYLED_ITEM('',(#87),#80);
#89=ADVANCED_FACE('',(#132),#134,.F.);
#90=COLOUR_RGB('',0.564705882352941,0.564705882352941,0.564705882352941);
#91=FILL_AREA_STYLE_COLOUR('',#90);
#92=FILL_AREA_STYLE($,(#91));
#93=SURFACE_STYLE_FILL_AREA(#92);
#94=SURFACE_SIDE_STYLE('',(#93));
#95=SURFACE_STYLE_USAGE(.BOTH.,#94);
#96=PRESENTATION_STYLE_ASSIGNMENT((#95));
#97=STYLED_ITEM('',(#96),#89);
#98=FACE_BOUND('',#99,.T.);
#99=EDGE_LOOP('',(#139));
#100=FACE_BOUND('',#101,.T.);
#101=EDGE_LOOP('',(#140));
#102=PLANE('',#103);
#103=AXIS2_PLACEMENT_3D('',#104,#105,#106);
#104=CARTESIAN_POINT('',(10.,0.,-1.83697019872103E-15));
#105=DIRECTION('',(1.,0.,-1.83697019872103E-16));
#106=DIRECTION('',(1.12481983699639E-32,1.,6.12323399573677E-17));
#107=FACE_OUTER_BOUND('',#108,.T.);
#108=EDGE_LOOP('',(#141));
#109=FACE_OUTER_BOUND('',#110,.T.);
#110=EDGE_LOOP('',(#142));
#111=CONICAL_SURFACE('',#112,1.5,0.110657221173896);
#112=AXIS2_PLACEMENT_3D('',#113,#114,#115);
#113=CARTESIAN_POINT('',(5.5,5.47382212626882E-48,-1.01033360929657E-15));
#114=DIRECTION('',(1.,1.3684555315672E-48,-1.83697019872103E-16));
#115=DIRECTION('',(-1.12481983699639E-32,-1.,-6.12323399573677E-17));
#116=FACE_OUTER_BOUND('',#117,.T.);
#117=EDGE_LOOP('',(#143));
#118=FACE_OUTER_BOUND('',#119,.T.);
#119=EDGE_LOOP('',(#144));
#120=CYLINDRICAL_SURFACE('',#121,2.25);
#121=AXIS2_PLACEMENT_3D('',#122,#123,#124);
#122=CARTESIAN_POINT('',(0.,0.,0.));
#123=DIRECTION('',(1.,0.,-1.83697019872103E-16));
#124=DIRECTION('',(1.12481983699639E-32,1.,6.12323399573677E-17));
#125=FACE_BOUND('',#126,.T.);
#126=EDGE_LOOP('',(#145));
#127=PLANE('',#128);
#128=AXIS2_PLACEMENT_3D('',#129,#130,#131);
#129=CARTESIAN_POINT('',(1.,0.,-1.83697019872103E-16));
#130=DIRECTION('',(1.,0.,-1.83697019872103E-16));
#131=DIRECTION('',(-1.12481983699639E-32,-1.,-6.12323399573677E-17));
#132=FACE_BOUND('',#133,.T.);
#133=EDGE_LOOP('',(#146));
#134=PLANE('',#135);
#135=AXIS2_PLACEMENT_3D('',#136,#137,#138);
#136=CARTESIAN_POINT('',(0.,0.,0.));
#137=DIRECTION('',(1.,0.,-1.83697019872103E-16));
#138=DIRECTION('',(1.12481983699639E-32,1.,6.12323399573677E-17));
#139=ORIENTED_EDGE('',*,*,#147,.T.);
#140=ORIENTED_EDGE('',*,*,#148,.T.);
#141=ORIENTED_EDGE('',*,*,#148,.F.);
#142=ORIENTED_EDGE('',*,*,#149,.F.);
#143=ORIENTED_EDGE('',*,*,#147,.F.);
#144=ORIENTED_EDGE('',*,*,#150,.T.);
#145=ORIENTED_EDGE('',*,*,#149,.T.);
#146=ORIENTED_EDGE('',*,*,#150,.F.);
#147=EDGE_CURVE('',#151,#151,#152,.T.);
#148=EDGE_CURVE('',#153,#153,#154,.F.);
#149=EDGE_CURVE('',#155,#155,#156,.T.);
#150=EDGE_CURVE('',#157,#157,#158,.T.);
#151=VERTEX_POINT('',#159);
#152=CIRCLE('',#160,2.25);
#153=VERTEX_POINT('',#164);
#154=CIRCLE('',#165,2.);
#155=VERTEX_POINT('',#169);
#156=CIRCLE('',#170,1.);
#157=VERTEX_POINT('',#174);
#158=CIRCLE('',#175,2.25);
#159=CARTESIAN_POINT('',(10.,2.25,-1.97474296362511E-15));
#160=AXIS2_PLACEMENT_3D('',#161,#162,#163);
#161=CARTESIAN_POINT('',(10.,0.,-1.83697019872103E-15));
#162=DIRECTION('',(1.,0.,-1.83697019872103E-16));
#163=DIRECTION('',(1.12481983699639E-32,1.,6.12323399573677E-17));
#164=CARTESIAN_POINT('',(10.,-2.,-1.95943487863576E-15));
#165=AXIS2_PLACEMENT_3D('',#166,#167,#168);
#166=CARTESIAN_POINT('',(10.,1.09476442525376E-47,-1.83697019872103E-15));
#167=DIRECTION('',(1.,0.,-1.83697019872103E-16));
#168=DIRECTION('',(-1.12481983699639E-32,-1.,-6.12323399573677E-17));
#169=CARTESIAN_POINT('',(1.,-1.,-2.44929359829471E-16));
#170=AXIS2_PLACEMENT_3D('',#171,#172,#173);
#171=CARTESIAN_POINT('',(1.,0.,-1.83697019872103E-16));
#172=DIRECTION('',(1.,0.,-1.83697019872103E-16));
#173=DIRECTION('',(-1.12481983699639E-32,-1.,-6.12323399573677E-17));
#174=CARTESIAN_POINT('',(-2.53084463324189E-32,2.25,-1.37772764904077E-16));
#175=AXIS2_PLACEMENT_3D('',#176,#177,#178);
#176=CARTESIAN_POINT('',(0.,0.,0.));
#177=DIRECTION('',(1.,0.,-1.83697019872103E-16));
#178=DIRECTION('',(1.12481983699639E-32,1.,6.12323399573677E-17));
ENDSEC;
END-ISO-10303-21;
