ISO-10303-21;
HEADER;
FILE_DESCRIPTION(('STEP AP242'),
    '1');
FILE_NAME('корпус',
    '2026-08-09T15:01:03',
    (''),
    ('HP Inc.'),
    'C3D Converter',
    'C3D Toolkit',
    '');
/**/
FILE_SCHEMA(('AP242_MANAGED_MODEL_BASED_3D_ENGINEERING_MIM_LF { 1 0 10303 442 1 1 4 }'));
ENDSEC;

DATA;
#1=PRODUCT_DEFINITION('','UNSPECIFIED',#28,#31);
#2=SHAPE_DEFINITION_REPRESENTATION(#26,#3);
#3=SHAPE_REPRESENTATION('NONE',(#4),#8);
#4=AXIS2_PLACEMENT_3D('',#5,#6,#7);
#5=CARTESIAN_POINT('',(0.,0.,0.));
#6=DIRECTION('',(0.,0.,1.));
#7=DIRECTION('',(1.,0.,0.));
#8=(GEOMETRIC_REPRESENTATION_CONTEXT(3)GLOBAL_UNCERTAINTY_ASSIGNED_CONTEXT((#10))
GLOBAL_UNIT_ASSIGNED_CONTEXT((#9,#11,#12))REPRESENTATION_CONTEXT('NONE','NONE'));
#9=(LENGTH_UNIT()NAMED_UNIT(*)SI_UNIT(.MILLI.,.METRE.));
#10=UNCERTAINTY_MEASURE_WITH_UNIT(LENGTH_MEASURE(1.E-5),#9,'NONE','NONE');
#11=(NAMED_UNIT(*)PLANE_ANGLE_UNIT()SI_UNIT($,.RADIAN.));
#12=(NAMED_UNIT(*)SI_UNIT($,.STERADIAN.)SOLID_ANGLE_UNIT());
#13=MANIFOLD_SOLID_BREP('',#14);
#14=CLOSED_SHELL('',(#53,#62,#71,#80,#89,#98,#107,#116,#125,#134,#143,#152,#161,
#170,#179,#188,#197,#206,#215,#224,#233,#242,#251,#260,#269,#278,#287,#296,#305,
#314,#323,#332,#341,#350,#359,#368,#377,#386,#395,#404));
#15=COLOUR_RGB('',0.564705882352941,0.564705882352941,0.564705882352941);
#16=FILL_AREA_STYLE_COLOUR('',#15);
#17=FILL_AREA_STYLE($,(#16));
#18=SURFACE_STYLE_FILL_AREA(#17);
#19=SURFACE_SIDE_STYLE('',(#18));
#20=SURFACE_STYLE_USAGE(.BOTH.,#19);
#21=PRESENTATION_STYLE_ASSIGNMENT((#20));
#22=MECHANICAL_DESIGN_GEOMETRIC_PRESENTATION_REPRESENTATION('NONE',(#23,#61,#70,
#79,#88,#97,#106,#115,#124,#133,#142,#151,#160,#169,#178,#187,#196,#205,#214,#223,
#232,#241,#250,#259,#268,#277,#286,#295,#304,#313,#322,#331,#340,#349,#358,#367,
#376,#385,#394,#403,#412),#8);
#23=STYLED_ITEM('',(#21),#13);
#24=ADVANCED_BREP_SHAPE_REPRESENTATION('NONE',(#13),#8);
#25=SHAPE_REPRESENTATION_RELATIONSHIP('','',#3,#24);
#26=PRODUCT_DEFINITION_SHAPE('NONE','NONE',#1);
#27=MECHANICAL_CONTEXT('NONE',#32,'mechanical');
#28=PRODUCT_DEFINITION_FORMATION_WITH_SPECIFIED_SOURCE('ANY','UNSPECIFIED',#29,.NOT_KNOWN.);
#29=PRODUCT('','\X2\0414043504420430043B044C\X0\','NONE',(#27));
#30=PRODUCT_RELATED_PRODUCT_CATEGORY('detail','',(#29));
#31=DESIGN_CONTEXT('detailed design',#32,'design');
#32=APPLICATION_CONTEXT('configuration controlled 3d designs of mechanical parts and assemblies');
#33=APPLICATION_PROTOCOL_DEFINITION('international standard','config_control_design',
1994,#32);
#34=CC_DESIGN_DATE_AND_TIME_ASSIGNMENT(#35,#39,(#1));
#35=DATE_AND_TIME(#36,#37);
#36=CALENDAR_DATE(0,1,1);
#37=LOCAL_TIME(0,0,0.,#38);
#38=COORDINATED_UNIVERSAL_TIME_OFFSET(0,0,.AHEAD.);
#39=DATE_TIME_ROLE('creation_date');
#40=CC_DESIGN_APPROVAL(#41,(#1));
#41=APPROVAL(#42,'UNSPECIFIED');
#42=APPROVAL_STATUS('not_yet_approved');
#43=APPROVAL_DATE_TIME(#44,#41);
#44=DATE_AND_TIME(#45,#46);
#45=CALENDAR_DATE(0,1,1);
#46=LOCAL_TIME(0,0,0.,#47);
#47=COORDINATED_UNIVERSAL_TIME_OFFSET(0,0,.AHEAD.);
#48=PERSON('UNSPECIFIED','','UNSPECIFIED',('UNSPECIFIED'),('UNSPECIFIED'),
('UNSPECIFIED'));
#49=ORGANIZATION('UNSPECIFIED','HP Inc.','UNSPECIFIED');
#50=PERSON_AND_ORGANIZATION(#48,#49);
#51=PERSON_AND_ORGANIZATION_ROLE('creator');
#52=CC_DESIGN_PERSON_AND_ORGANIZATION_ASSIGNMENT(#50,#51,(#28,#1));
#53=ADVANCED_FACE('',(#413),#415,.T.);
#54=COLOUR_RGB('',0.564705882352941,0.564705882352941,0.564705882352941);
#55=FILL_AREA_STYLE_COLOUR('',#54);
#56=FILL_AREA_STYLE($,(#55));
#57=SURFACE_STYLE_FILL_AREA(#56);
#58=SURFACE_SIDE_STYLE('',(#57));
#59=SURFACE_STYLE_USAGE(.BOTH.,#58);
#60=PRESENTATION_STYLE_ASSIGNMENT((#59));
#61=STYLED_ITEM('',(#60),#53);
#62=ADVANCED_FACE('',(#420),#422,.T.);
#63=COLOUR_RGB('',0.564705882352941,0.564705882352941,0.564705882352941);
#64=FILL_AREA_STYLE_COLOUR('',#63);
#65=FILL_AREA_STYLE($,(#64));
#66=SURFACE_STYLE_FILL_AREA(#65);
#67=SURFACE_SIDE_STYLE('',(#66));
#68=SURFACE_STYLE_USAGE(.BOTH.,#67);
#69=PRESENTATION_STYLE_ASSIGNMENT((#68));
#70=STYLED_ITEM('',(#69),#62);
#71=ADVANCED_FACE('',(#427),#429,.T.);
#72=COLOUR_RGB('',0.564705882352941,0.564705882352941,0.564705882352941);
#73=FILL_AREA_STYLE_COLOUR('',#72);
#74=FILL_AREA_STYLE($,(#73));
#75=SURFACE_STYLE_FILL_AREA(#74);
#76=SURFACE_SIDE_STYLE('',(#75));
#77=SURFACE_STYLE_USAGE(.BOTH.,#76);
#78=PRESENTATION_STYLE_ASSIGNMENT((#77));
#79=STYLED_ITEM('',(#78),#71);
#80=ADVANCED_FACE('',(#434),#436,.T.);
#81=COLOUR_RGB('',0.564705882352941,0.564705882352941,0.564705882352941);
#82=FILL_AREA_STYLE_COLOUR('',#81);
#83=FILL_AREA_STYLE($,(#82));
#84=SURFACE_STYLE_FILL_AREA(#83);
#85=SURFACE_SIDE_STYLE('',(#84));
#86=SURFACE_STYLE_USAGE(.BOTH.,#85);
#87=PRESENTATION_STYLE_ASSIGNMENT((#86));
#88=STYLED_ITEM('',(#87),#80);
#89=ADVANCED_FACE('',(#441,#443),#445,.F.);
#90=COLOUR_RGB('',0.564705882352941,0.564705882352941,0.564705882352941);
#91=FILL_AREA_STYLE_COLOUR('',#90);
#92=FILL_AREA_STYLE($,(#91));
#93=SURFACE_STYLE_FILL_AREA(#92);
#94=SURFACE_SIDE_STYLE('',(#93));
#95=SURFACE_STYLE_USAGE(.BOTH.,#94);
#96=PRESENTATION_STYLE_ASSIGNMENT((#95));
#97=STYLED_ITEM('',(#96),#89);
#98=ADVANCED_FACE('',(#450,#452),#454,.F.);
#99=COLOUR_RGB('',0.564705882352941,0.564705882352941,0.564705882352941);
#100=FILL_AREA_STYLE_COLOUR('',#99);
#101=FILL_AREA_STYLE($,(#100));
#102=SURFACE_STYLE_FILL_AREA(#101);
#103=SURFACE_SIDE_STYLE('',(#102));
#104=SURFACE_STYLE_USAGE(.BOTH.,#103);
#105=PRESENTATION_STYLE_ASSIGNMENT((#104));
#106=STYLED_ITEM('',(#105),#98);
#107=ADVANCED_FACE('',(#459),#461,.F.);
#108=COLOUR_RGB('',0.564705882352941,0.564705882352941,0.564705882352941);
#109=FILL_AREA_STYLE_COLOUR('',#108);
#110=FILL_AREA_STYLE($,(#109));
#111=SURFACE_STYLE_FILL_AREA(#110);
#112=SURFACE_SIDE_STYLE('',(#111));
#113=SURFACE_STYLE_USAGE(.BOTH.,#112);
#114=PRESENTATION_STYLE_ASSIGNMENT((#113));
#115=STYLED_ITEM('',(#114),#107);
#116=ADVANCED_FACE('',(#466),#468,.T.);
#117=COLOUR_RGB('',0.564705882352941,0.564705882352941,0.564705882352941);
#118=FILL_AREA_STYLE_COLOUR('',#117);
#119=FILL_AREA_STYLE($,(#118));
#120=SURFACE_STYLE_FILL_AREA(#119);
#121=SURFACE_SIDE_STYLE('',(#120));
#122=SURFACE_STYLE_USAGE(.BOTH.,#121);
#123=PRESENTATION_STYLE_ASSIGNMENT((#122));
#124=STYLED_ITEM('',(#123),#116);
#125=ADVANCED_FACE('',(#473,#475),#477,.T.);
#126=COLOUR_RGB('',0.564705882352941,0.564705882352941,0.564705882352941);
#127=FILL_AREA_STYLE_COLOUR('',#126);
#128=FILL_AREA_STYLE($,(#127));
#129=SURFACE_STYLE_FILL_AREA(#128);
#130=SURFACE_SIDE_STYLE('',(#129));
#131=SURFACE_STYLE_USAGE(.BOTH.,#130);
#132=PRESENTATION_STYLE_ASSIGNMENT((#131));
#133=STYLED_ITEM('',(#132),#125);
#134=ADVANCED_FACE('',(#482),#484,.T.);
#135=COLOUR_RGB('',0.564705882352941,0.564705882352941,0.564705882352941);
#136=FILL_AREA_STYLE_COLOUR('',#135);
#137=FILL_AREA_STYLE($,(#136));
#138=SURFACE_STYLE_FILL_AREA(#137);
#139=SURFACE_SIDE_STYLE('',(#138));
#140=SURFACE_STYLE_USAGE(.BOTH.,#139);
#141=PRESENTATION_STYLE_ASSIGNMENT((#140));
#142=STYLED_ITEM('',(#141),#134);
#143=ADVANCED_FACE('',(#489,#491),#493,.T.);
#144=COLOUR_RGB('',0.564705882352941,0.564705882352941,0.564705882352941);
#145=FILL_AREA_STYLE_COLOUR('',#144);
#146=FILL_AREA_STYLE($,(#145));
#147=SURFACE_STYLE_FILL_AREA(#146);
#148=SURFACE_SIDE_STYLE('',(#147));
#149=SURFACE_STYLE_USAGE(.BOTH.,#148);
#150=PRESENTATION_STYLE_ASSIGNMENT((#149));
#151=STYLED_ITEM('',(#150),#143);
#152=ADVANCED_FACE('',(#498),#500,.F.);
#153=COLOUR_RGB('',0.564705882352941,0.564705882352941,0.564705882352941);
#154=FILL_AREA_STYLE_COLOUR('',#153);
#155=FILL_AREA_STYLE($,(#154));
#156=SURFACE_STYLE_FILL_AREA(#155);
#157=SURFACE_SIDE_STYLE('',(#156));
#158=SURFACE_STYLE_USAGE(.BOTH.,#157);
#159=PRESENTATION_STYLE_ASSIGNMENT((#158));
#160=STYLED_ITEM('',(#159),#152);
#161=ADVANCED_FACE('',(#505),#507,.T.);
#162=COLOUR_RGB('',0.564705882352941,0.564705882352941,0.564705882352941);
#163=FILL_AREA_STYLE_COLOUR('',#162);
#164=FILL_AREA_STYLE($,(#163));
#165=SURFACE_STYLE_FILL_AREA(#164);
#166=SURFACE_SIDE_STYLE('',(#165));
#167=SURFACE_STYLE_USAGE(.BOTH.,#166);
#168=PRESENTATION_STYLE_ASSIGNMENT((#167));
#169=STYLED_ITEM('',(#168),#161);
#170=ADVANCED_FACE('',(#512),#514,.T.);
#171=COLOUR_RGB('',0.564705882352941,0.564705882352941,0.564705882352941);
#172=FILL_AREA_STYLE_COLOUR('',#171);
#173=FILL_AREA_STYLE($,(#172));
#174=SURFACE_STYLE_FILL_AREA(#173);
#175=SURFACE_SIDE_STYLE('',(#174));
#176=SURFACE_STYLE_USAGE(.BOTH.,#175);
#177=PRESENTATION_STYLE_ASSIGNMENT((#176));
#178=STYLED_ITEM('',(#177),#170);
#179=ADVANCED_FACE('',(#519),#521,.F.);
#180=COLOUR_RGB('',0.564705882352941,0.564705882352941,0.564705882352941);
#181=FILL_AREA_STYLE_COLOUR('',#180);
#182=FILL_AREA_STYLE($,(#181));
#183=SURFACE_STYLE_FILL_AREA(#182);
#184=SURFACE_SIDE_STYLE('',(#183));
#185=SURFACE_STYLE_USAGE(.BOTH.,#184);
#186=PRESENTATION_STYLE_ASSIGNMENT((#185));
#187=STYLED_ITEM('',(#186),#179);
#188=ADVANCED_FACE('',(#526,#528,#530,#532,#534,#536),#538,.F.);
#189=COLOUR_RGB('',0.564705882352941,0.564705882352941,0.564705882352941);
#190=FILL_AREA_STYLE_COLOUR('',#189);
#191=FILL_AREA_STYLE($,(#190));
#192=SURFACE_STYLE_FILL_AREA(#191);
#193=SURFACE_SIDE_STYLE('',(#192));
#194=SURFACE_STYLE_USAGE(.BOTH.,#193);
#195=PRESENTATION_STYLE_ASSIGNMENT((#194));
#196=STYLED_ITEM('',(#195),#188);
#197=ADVANCED_FACE('',(#543),#545,.T.);
#198=COLOUR_RGB('',0.564705882352941,0.564705882352941,0.564705882352941);
#199=FILL_AREA_STYLE_COLOUR('',#198);
#200=FILL_AREA_STYLE($,(#199));
#201=SURFACE_STYLE_FILL_AREA(#200);
#202=SURFACE_SIDE_STYLE('',(#201));
#203=SURFACE_STYLE_USAGE(.BOTH.,#202);
#204=PRESENTATION_STYLE_ASSIGNMENT((#203));
#205=STYLED_ITEM('',(#204),#197);
#206=ADVANCED_FACE('',(#550,#552,#554,#556,#558,#560),#562,.T.);
#207=COLOUR_RGB('',0.564705882352941,0.564705882352941,0.564705882352941);
#208=FILL_AREA_STYLE_COLOUR('',#207);
#209=FILL_AREA_STYLE($,(#208));
#210=SURFACE_STYLE_FILL_AREA(#209);
#211=SURFACE_SIDE_STYLE('',(#210));
#212=SURFACE_STYLE_USAGE(.BOTH.,#211);
#213=PRESENTATION_STYLE_ASSIGNMENT((#212));
#214=STYLED_ITEM('',(#213),#206);
#215=ADVANCED_FACE('',(#567),#569,.F.);
#216=COLOUR_RGB('',0.564705882352941,0.564705882352941,0.564705882352941);
#217=FILL_AREA_STYLE_COLOUR('',#216);
#218=FILL_AREA_STYLE($,(#217));
#219=SURFACE_STYLE_FILL_AREA(#218);
#220=SURFACE_SIDE_STYLE('',(#219));
#221=SURFACE_STYLE_USAGE(.BOTH.,#220);
#222=PRESENTATION_STYLE_ASSIGNMENT((#221));
#223=STYLED_ITEM('',(#222),#215);
#224=ADVANCED_FACE('',(#574),#576,.F.);
#225=COLOUR_RGB('',0.564705882352941,0.564705882352941,0.564705882352941);
#226=FILL_AREA_STYLE_COLOUR('',#225);
#227=FILL_AREA_STYLE($,(#226));
#228=SURFACE_STYLE_FILL_AREA(#227);
#229=SURFACE_SIDE_STYLE('',(#228));
#230=SURFACE_STYLE_USAGE(.BOTH.,#229);
#231=PRESENTATION_STYLE_ASSIGNMENT((#230));
#232=STYLED_ITEM('',(#231),#224);
#233=ADVANCED_FACE('',(#581),#583,.F.);
#234=COLOUR_RGB('',0.564705882352941,0.564705882352941,0.564705882352941);
#235=FILL_AREA_STYLE_COLOUR('',#234);
#236=FILL_AREA_STYLE($,(#235));
#237=SURFACE_STYLE_FILL_AREA(#236);
#238=SURFACE_SIDE_STYLE('',(#237));
#239=SURFACE_STYLE_USAGE(.BOTH.,#238);
#240=PRESENTATION_STYLE_ASSIGNMENT((#239));
#241=STYLED_ITEM('',(#240),#233);
#242=ADVANCED_FACE('',(#588),#590,.F.);
#243=COLOUR_RGB('',0.564705882352941,0.564705882352941,0.564705882352941);
#244=FILL_AREA_STYLE_COLOUR('',#243);
#245=FILL_AREA_STYLE($,(#244));
#246=SURFACE_STYLE_FILL_AREA(#245);
#247=SURFACE_SIDE_STYLE('',(#246));
#248=SURFACE_STYLE_USAGE(.BOTH.,#247);
#249=PRESENTATION_STYLE_ASSIGNMENT((#248));
#250=STYLED_ITEM('',(#249),#242);
#251=ADVANCED_FACE('',(#595),#597,.F.);
#252=COLOUR_RGB('',0.564705882352941,0.564705882352941,0.564705882352941);
#253=FILL_AREA_STYLE_COLOUR('',#252);
#254=FILL_AREA_STYLE($,(#253));
#255=SURFACE_STYLE_FILL_AREA(#254);
#256=SURFACE_SIDE_STYLE('',(#255));
#257=SURFACE_STYLE_USAGE(.BOTH.,#256);
#258=PRESENTATION_STYLE_ASSIGNMENT((#257));
#259=STYLED_ITEM('',(#258),#251);
#260=ADVANCED_FACE('',(#602),#604,.F.);
#261=COLOUR_RGB('',0.564705882352941,0.564705882352941,0.564705882352941);
#262=FILL_AREA_STYLE_COLOUR('',#261);
#263=FILL_AREA_STYLE($,(#262));
#264=SURFACE_STYLE_FILL_AREA(#263);
#265=SURFACE_SIDE_STYLE('',(#264));
#266=SURFACE_STYLE_USAGE(.BOTH.,#265);
#267=PRESENTATION_STYLE_ASSIGNMENT((#266));
#268=STYLED_ITEM('',(#267),#260);
#269=ADVANCED_FACE('',(#609),#611,.F.);
#270=COLOUR_RGB('',0.564705882352941,0.564705882352941,0.564705882352941);
#271=FILL_AREA_STYLE_COLOUR('',#270);
#272=FILL_AREA_STYLE($,(#271));
#273=SURFACE_STYLE_FILL_AREA(#272);
#274=SURFACE_SIDE_STYLE('',(#273));
#275=SURFACE_STYLE_USAGE(.BOTH.,#274);
#276=PRESENTATION_STYLE_ASSIGNMENT((#275));
#277=STYLED_ITEM('',(#276),#269);
#278=ADVANCED_FACE('',(#616),#618,.F.);
#279=COLOUR_RGB('',0.564705882352941,0.564705882352941,0.564705882352941);
#280=FILL_AREA_STYLE_COLOUR('',#279);
#281=FILL_AREA_STYLE($,(#280));
#282=SURFACE_STYLE_FILL_AREA(#281);
#283=SURFACE_SIDE_STYLE('',(#282));
#284=SURFACE_STYLE_USAGE(.BOTH.,#283);
#285=PRESENTATION_STYLE_ASSIGNMENT((#284));
#286=STYLED_ITEM('',(#285),#278);
#287=ADVANCED_FACE('',(#623),#625,.T.);
#288=COLOUR_RGB('',0.564705882352941,0.564705882352941,0.564705882352941);
#289=FILL_AREA_STYLE_COLOUR('',#288);
#290=FILL_AREA_STYLE($,(#289));
#291=SURFACE_STYLE_FILL_AREA(#290);
#292=SURFACE_SIDE_STYLE('',(#291));
#293=SURFACE_STYLE_USAGE(.BOTH.,#292);
#294=PRESENTATION_STYLE_ASSIGNMENT((#293));
#295=STYLED_ITEM('',(#294),#287);
#296=ADVANCED_FACE('',(#630,#632,#634,#636,#638,#640),#642,.T.);
#297=COLOUR_RGB('',0.564705882352941,0.564705882352941,0.564705882352941);
#298=FILL_AREA_STYLE_COLOUR('',#297);
#299=FILL_AREA_STYLE($,(#298));
#300=SURFACE_STYLE_FILL_AREA(#299);
#301=SURFACE_SIDE_STYLE('',(#300));
#302=SURFACE_STYLE_USAGE(.BOTH.,#301);
#303=PRESENTATION_STYLE_ASSIGNMENT((#302));
#304=STYLED_ITEM('',(#303),#296);
#305=ADVANCED_FACE('',(#647),#649,.T.);
#306=COLOUR_RGB('',0.564705882352941,0.564705882352941,0.564705882352941);
#307=FILL_AREA_STYLE_COLOUR('',#306);
#308=FILL_AREA_STYLE($,(#307));
#309=SURFACE_STYLE_FILL_AREA(#308);
#310=SURFACE_SIDE_STYLE('',(#309));
#311=SURFACE_STYLE_USAGE(.BOTH.,#310);
#312=PRESENTATION_STYLE_ASSIGNMENT((#311));
#313=STYLED_ITEM('',(#312),#305);
#314=ADVANCED_FACE('',(#654,#656,#658,#660,#662,#664),#666,.F.);
#315=COLOUR_RGB('',0.564705882352941,0.564705882352941,0.564705882352941);
#316=FILL_AREA_STYLE_COLOUR('',#315);
#317=FILL_AREA_STYLE($,(#316));
#318=SURFACE_STYLE_FILL_AREA(#317);
#319=SURFACE_SIDE_STYLE('',(#318));
#320=SURFACE_STYLE_USAGE(.BOTH.,#319);
#321=PRESENTATION_STYLE_ASSIGNMENT((#320));
#322=STYLED_ITEM('',(#321),#314);
#323=ADVANCED_FACE('',(#671,#673),#675,.F.);
#324=COLOUR_RGB('',0.564705882352941,0.564705882352941,0.564705882352941);
#325=FILL_AREA_STYLE_COLOUR('',#324);
#326=FILL_AREA_STYLE($,(#325));
#327=SURFACE_STYLE_FILL_AREA(#326);
#328=SURFACE_SIDE_STYLE('',(#327));
#329=SURFACE_STYLE_USAGE(.BOTH.,#328);
#330=PRESENTATION_STYLE_ASSIGNMENT((#329));
#331=STYLED_ITEM('',(#330),#323);
#332=ADVANCED_FACE('',(#680,#682),#684,.F.);
#333=COLOUR_RGB('',0.564705882352941,0.564705882352941,0.564705882352941);
#334=FILL_AREA_STYLE_COLOUR('',#333);
#335=FILL_AREA_STYLE($,(#334));
#336=SURFACE_STYLE_FILL_AREA(#335);
#337=SURFACE_SIDE_STYLE('',(#336));
#338=SURFACE_STYLE_USAGE(.BOTH.,#337);
#339=PRESENTATION_STYLE_ASSIGNMENT((#338));
#340=STYLED_ITEM('',(#339),#332);
#341=ADVANCED_FACE('',(#689,#691),#693,.F.);
#342=COLOUR_RGB('',0.564705882352941,0.564705882352941,0.564705882352941);
#343=FILL_AREA_STYLE_COLOUR('',#342);
#344=FILL_AREA_STYLE($,(#343));
#345=SURFACE_STYLE_FILL_AREA(#344);
#346=SURFACE_SIDE_STYLE('',(#345));
#347=SURFACE_STYLE_USAGE(.BOTH.,#346);
#348=PRESENTATION_STYLE_ASSIGNMENT((#347));
#349=STYLED_ITEM('',(#348),#341);
#350=ADVANCED_FACE('',(#698,#700),#702,.F.);
#351=COLOUR_RGB('',0.564705882352941,0.564705882352941,0.564705882352941);
#352=FILL_AREA_STYLE_COLOUR('',#351);
#353=FILL_AREA_STYLE($,(#352));
#354=SURFACE_STYLE_FILL_AREA(#353);
#355=SURFACE_SIDE_STYLE('',(#354));
#356=SURFACE_STYLE_USAGE(.BOTH.,#355);
#357=PRESENTATION_STYLE_ASSIGNMENT((#356));
#358=STYLED_ITEM('',(#357),#350);
#359=ADVANCED_FACE('',(#707,#709),#711,.F.);
#360=COLOUR_RGB('',0.564705882352941,0.564705882352941,0.564705882352941);
#361=FILL_AREA_STYLE_COLOUR('',#360);
#362=FILL_AREA_STYLE($,(#361));
#363=SURFACE_STYLE_FILL_AREA(#362);
#364=SURFACE_SIDE_STYLE('',(#363));
#365=SURFACE_STYLE_USAGE(.BOTH.,#364);
#366=PRESENTATION_STYLE_ASSIGNMENT((#365));
#367=STYLED_ITEM('',(#366),#359);
#368=ADVANCED_FACE('',(#716,#718),#720,.F.);
#369=COLOUR_RGB('',0.564705882352941,0.564705882352941,0.564705882352941);
#370=FILL_AREA_STYLE_COLOUR('',#369);
#371=FILL_AREA_STYLE($,(#370));
#372=SURFACE_STYLE_FILL_AREA(#371);
#373=SURFACE_SIDE_STYLE('',(#372));
#374=SURFACE_STYLE_USAGE(.BOTH.,#373);
#375=PRESENTATION_STYLE_ASSIGNMENT((#374));
#376=STYLED_ITEM('',(#375),#368);
#377=ADVANCED_FACE('',(#725,#727),#729,.F.);
#378=COLOUR_RGB('',0.564705882352941,0.564705882352941,0.564705882352941);
#379=FILL_AREA_STYLE_COLOUR('',#378);
#380=FILL_AREA_STYLE($,(#379));
#381=SURFACE_STYLE_FILL_AREA(#380);
#382=SURFACE_SIDE_STYLE('',(#381));
#383=SURFACE_STYLE_USAGE(.BOTH.,#382);
#384=PRESENTATION_STYLE_ASSIGNMENT((#383));
#385=STYLED_ITEM('',(#384),#377);
#386=ADVANCED_FACE('',(#734,#736),#738,.F.);
#387=COLOUR_RGB('',0.564705882352941,0.564705882352941,0.564705882352941);
#388=FILL_AREA_STYLE_COLOUR('',#387);
#389=FILL_AREA_STYLE($,(#388));
#390=SURFACE_STYLE_FILL_AREA(#389);
#391=SURFACE_SIDE_STYLE('',(#390));
#392=SURFACE_STYLE_USAGE(.BOTH.,#391);
#393=PRESENTATION_STYLE_ASSIGNMENT((#392));
#394=STYLED_ITEM('',(#393),#386);
#395=ADVANCED_FACE('',(#743,#745),#747,.F.);
#396=COLOUR_RGB('',0.564705882352941,0.564705882352941,0.564705882352941);
#397=FILL_AREA_STYLE_COLOUR('',#396);
#398=FILL_AREA_STYLE($,(#397));
#399=SURFACE_STYLE_FILL_AREA(#398);
#400=SURFACE_SIDE_STYLE('',(#399));
#401=SURFACE_STYLE_USAGE(.BOTH.,#400);
#402=PRESENTATION_STYLE_ASSIGNMENT((#401));
#403=STYLED_ITEM('',(#402),#395);
#404=ADVANCED_FACE('',(#752,#754),#756,.F.);
#405=COLOUR_RGB('',0.564705882352941,0.564705882352941,0.564705882352941);
#406=FILL_AREA_STYLE_COLOUR('',#405);
#407=FILL_AREA_STYLE($,(#406));
#408=SURFACE_STYLE_FILL_AREA(#407);
#409=SURFACE_SIDE_STYLE('',(#408));
#410=SURFACE_STYLE_USAGE(.BOTH.,#409);
#411=PRESENTATION_STYLE_ASSIGNMENT((#410));
#412=STYLED_ITEM('',(#411),#404);
#413=FACE_BOUND('',#414,.T.);
#414=EDGE_LOOP('',(#761,#762,#763,#764));
#415=PLANE('',#416);
#416=AXIS2_PLACEMENT_3D('',#417,#418,#419);
#417=CARTESIAN_POINT('',(48.,-91.,-18.8));
#418=DIRECTION('',(0.,0.,1.));
#419=DIRECTION('',(1.,0.,0.));
#420=FACE_BOUND('',#421,.T.);
#421=EDGE_LOOP('',(#765,#766,#767,#768));
#422=PLANE('',#423);
#423=AXIS2_PLACEMENT_3D('',#424,#425,#426);
#424=CARTESIAN_POINT('',(48.,-91.,-22.5));
#425=DIRECTION('',(-1.,0.,0.));
#426=DIRECTION('',(0.,0.,1.));
#427=FACE_BOUND('',#428,.T.);
#428=EDGE_LOOP('',(#769,#770,#771,#772));
#429=PLANE('',#430);
#430=AXIS2_PLACEMENT_3D('',#431,#432,#433);
#431=CARTESIAN_POINT('',(50.,-91.,18.8));
#432=DIRECTION('',(0.,0.,-1.));
#433=DIRECTION('',(-1.,0.,0.));
#434=FACE_BOUND('',#435,.T.);
#435=EDGE_LOOP('',(#773,#774,#775,#776));
#436=PLANE('',#437);
#437=AXIS2_PLACEMENT_3D('',#438,#439,#440);
#438=CARTESIAN_POINT('',(48.,-91.,18.8));
#439=DIRECTION('',(-1.,0.,0.));
#440=DIRECTION('',(0.,0.,1.));
#441=FACE_BOUND('',#442,.T.);
#442=EDGE_LOOP('',(#777,#778,#779,#780,#781,#782,#783));
#443=FACE_BOUND('',#444,.T.);
#444=EDGE_LOOP('',(#784,#785,#786,#787));
#445=PLANE('',#446);
#446=AXIS2_PLACEMENT_3D('',#447,#448,#449);
#447=CARTESIAN_POINT('',(3.76578890737811E-15,90.,20.5));
#448=DIRECTION('',(2.1316282072803E-16,-7.89491928622334E-17,1.));
#449=DIRECTION('',(-8.76512116912235E-33,-1.,-7.89491928622334E-17));
#450=FACE_BOUND('',#451,.T.);
#451=EDGE_LOOP('',(#788,#789,#790,#791));
#452=FACE_BOUND('',#453,.T.);
#453=EDGE_LOOP('',(#792,#793,#794,#795));
#454=PLANE('',#455);
#455=AXIS2_PLACEMENT_3D('',#456,#457,#458);
#456=CARTESIAN_POINT('',(-3.76578890737811E-15,90.,-20.5));
#457=DIRECTION('',(0.,1.,0.));
#458=DIRECTION('',(1.83697019872103E-16,0.,1.));
#459=FACE_BOUND('',#460,.T.);
#460=EDGE_LOOP('',(#796,#797,#798,#799,#800,#801,#802));
#461=PLANE('',#462);
#462=AXIS2_PLACEMENT_3D('',#463,#464,#465);
#463=CARTESIAN_POINT('',(-3.76578890737811E-15,-90.,-20.5));
#464=DIRECTION('',(-1.4210854715202E-16,7.89491928622334E-17,-1.));
#465=DIRECTION('',(8.76512116912235E-33,1.,7.89491928622334E-17));
#466=FACE_BOUND('',#467,.T.);
#467=EDGE_LOOP('',(#803,#804,#805,#806,#807,#808,#809,#810));
#468=PLANE('',#469);
#469=AXIS2_PLACEMENT_3D('',#470,#471,#472);
#470=CARTESIAN_POINT('',(-4.05000600168215E-15,-90.,-22.5));
#471=DIRECTION('',(-1.4210854715202E-16,7.89491928622334E-17,-1.));
#472=DIRECTION('',(8.76512116912235E-33,1.,7.89491928622334E-17));
#473=FACE_BOUND('',#474,.T.);
#474=EDGE_LOOP('',(#811,#812,#813,#814));
#475=FACE_BOUND('',#476,.T.);
#476=EDGE_LOOP('',(#815,#816,#817,#818));
#477=PLANE('',#478);
#478=AXIS2_PLACEMENT_3D('',#479,#480,#481);
#479=CARTESIAN_POINT('',(-3.76578890737811E-15,92.,-20.5));
#480=DIRECTION('',(0.,1.,0.));
#481=DIRECTION('',(1.83697019872103E-16,0.,1.));
#482=FACE_BOUND('',#483,.T.);
#483=EDGE_LOOP('',(#819,#820,#821,#822,#823,#824,#825,#826));
#484=PLANE('',#485);
#485=AXIS2_PLACEMENT_3D('',#486,#487,#488);
#486=CARTESIAN_POINT('',(50.,0.,-9.18485099360515E-15));
#487=DIRECTION('',(1.,0.,-1.83697019872103E-16));
#488=DIRECTION('',(1.12481983699639E-32,1.,6.12323399573677E-17));
#489=FACE_BOUND('',#490,.T.);
#490=EDGE_LOOP('',(#827,#828,#829,#830,#831,#832,#833,#834));
#491=FACE_BOUND('',#492,.T.);
#492=EDGE_LOOP('',(#835,#836,#837,#838));
#493=PLANE('',#494);
#494=AXIS2_PLACEMENT_3D('',#495,#496,#497);
#495=CARTESIAN_POINT('',(4.19211454883417E-15,90.,22.5));
#496=DIRECTION('',(2.1316282072803E-16,-7.89491928622334E-17,1.));
#497=DIRECTION('',(-8.76512116912235E-33,-1.,-7.89491928622334E-17));
#498=FACE_BOUND('',#499,.T.);
#499=EDGE_LOOP('',(#839,#840,#841,#842,#843,#844));
#500=PLANE('',#501);
#501=AXIS2_PLACEMENT_3D('',#502,#503,#504);
#502=CARTESIAN_POINT('',(46.,89.,-22.5));
#503=DIRECTION('',(-1.,0.,0.));
#504=DIRECTION('',(0.,0.,1.));
#505=FACE_BOUND('',#506,.T.);
#506=EDGE_LOOP('',(#845,#846,#847,#848,#849,#850));
#507=PLANE('',#508);
#508=AXIS2_PLACEMENT_3D('',#509,#510,#511);
#509=CARTESIAN_POINT('',(-3.76578890737811E-15,90.,-20.5));
#510=DIRECTION('',(0.,1.,0.));
#511=DIRECTION('',(1.83697019872103E-16,0.,1.));
#512=FACE_BOUND('',#513,.T.);
#513=EDGE_LOOP('',(#851,#852,#853,#854,#855,#856));
#514=PLANE('',#515);
#515=AXIS2_PLACEMENT_3D('',#516,#517,#518);
#516=CARTESIAN_POINT('',(-3.76578890737811E-15,90.,-20.5));
#517=DIRECTION('',(0.,1.,0.));
#518=DIRECTION('',(1.83697019872103E-16,0.,1.));
#519=FACE_BOUND('',#520,.T.);
#520=EDGE_LOOP('',(#857,#858,#859,#860,#861,#862,#863,#864));
#521=PLANE('',#522);
#522=AXIS2_PLACEMENT_3D('',#523,#524,#525);
#523=CARTESIAN_POINT('',(3.76578890737811E-15,-90.,20.5));
#524=DIRECTION('',(0.,-1.,0.));
#525=DIRECTION('',(-1.83697019872103E-16,0.,-1.));
#526=FACE_BOUND('',#527,.T.);
#527=EDGE_LOOP('',(#865,#866,#867,#868));
#528=FACE_BOUND('',#529,.T.);
#529=EDGE_LOOP('',(#869));
#530=FACE_BOUND('',#531,.T.);
#531=EDGE_LOOP('',(#870));
#532=FACE_BOUND('',#533,.T.);
#533=EDGE_LOOP('',(#871));
#534=FACE_BOUND('',#535,.T.);
#535=EDGE_LOOP('',(#872));
#536=FACE_BOUND('',#537,.T.);
#537=EDGE_LOOP('',(#873));
#538=PLANE('',#539);
#539=AXIS2_PLACEMENT_3D('',#540,#541,#542);
#540=CARTESIAN_POINT('',(15.,0.,-2.75545529808154E-15));
#541=DIRECTION('',(-1.,0.,1.83697019872103E-16));
#542=DIRECTION('',(-1.12481983699639E-32,1.,-6.12323399573677E-17));
#543=FACE_BOUND('',#544,.T.);
#544=EDGE_LOOP('',(#874,#875,#876,#877));
#545=PLANE('',#546);
#546=AXIS2_PLACEMENT_3D('',#547,#548,#549);
#547=CARTESIAN_POINT('',(15.,-42.,22.5));
#548=DIRECTION('',(0.,1.,0.));
#549=DIRECTION('',(-1.57898385724467E-16,0.,-1.));
#550=FACE_BOUND('',#551,.T.);
#551=EDGE_LOOP('',(#878,#879,#880,#881));
#552=FACE_BOUND('',#553,.T.);
#553=EDGE_LOOP('',(#882));
#554=FACE_BOUND('',#555,.T.);
#555=EDGE_LOOP('',(#883));
#556=FACE_BOUND('',#557,.T.);
#557=EDGE_LOOP('',(#884));
#558=FACE_BOUND('',#559,.T.);
#559=EDGE_LOOP('',(#885));
#560=FACE_BOUND('',#561,.T.);
#561=EDGE_LOOP('',(#886));
#562=PLANE('',#563);
#563=AXIS2_PLACEMENT_3D('',#564,#565,#566);
#564=CARTESIAN_POINT('',(0.,0.,0.));
#565=DIRECTION('',(1.,0.,-1.83697019872103E-16));
#566=DIRECTION('',(1.12481983699639E-32,1.,6.12323399573677E-17));
#567=FACE_BOUND('',#568,.T.);
#568=EDGE_LOOP('',(#887,#888,#889,#890));
#569=PLANE('',#570);
#570=AXIS2_PLACEMENT_3D('',#571,#572,#573);
#571=CARTESIAN_POINT('',(7.5,76.2673556998433,12.5));
#572=DIRECTION('',(0.,1.,0.));
#573=DIRECTION('',(-1.,0.,3.5527136788005E-16));
#574=FACE_BOUND('',#575,.T.);
#575=EDGE_LOOP('',(#891,#892,#893,#894));
#576=PLANE('',#577);
#577=AXIS2_PLACEMENT_3D('',#578,#579,#580);
#578=CARTESIAN_POINT('',(2.5,76.2673556998433,12.5));
#579=DIRECTION('',(-1.,8.88178419700125E-17,2.22044604925031E-16));
#580=DIRECTION('',(-8.88178419700125E-17,-1.,0.));
#581=FACE_BOUND('',#582,.T.);
#582=EDGE_LOOP('',(#895,#896,#897,#898));
#583=PLANE('',#584);
#584=AXIS2_PLACEMENT_3D('',#585,#586,#587);
#585=CARTESIAN_POINT('',(2.5,66.2673556998433,12.5));
#586=DIRECTION('',(0.,-1.,0.));
#587=DIRECTION('',(1.,0.,-3.5527136788005E-16));
#588=FACE_BOUND('',#589,.T.);
#589=EDGE_LOOP('',(#899,#900,#901,#902));
#590=PLANE('',#591);
#591=AXIS2_PLACEMENT_3D('',#592,#593,#594);
#592=CARTESIAN_POINT('',(7.5,66.2673556998433,12.5));
#593=DIRECTION('',(1.,-8.88178419700125E-17,-2.66453525910038E-16));
#594=DIRECTION('',(8.88178419700125E-17,1.,0.));
#595=FACE_BOUND('',#596,.T.);
#596=EDGE_LOOP('',(#903,#904,#905,#906));
#597=PLANE('',#598);
#598=AXIS2_PLACEMENT_3D('',#599,#600,#601);
#599=CARTESIAN_POINT('',(27.5,82.,-5.06210727908162));
#600=DIRECTION('',(0.,0.,-1.));
#601=DIRECTION('',(-1.,0.,0.));
#602=FACE_BOUND('',#603,.T.);
#603=EDGE_LOOP('',(#907,#908,#909,#910));
#604=PLANE('',#605);
#605=AXIS2_PLACEMENT_3D('',#606,#607,#608);
#606=CARTESIAN_POINT('',(22.5,82.,-5.06210727908162));
#607=DIRECTION('',(-1.,0.,0.));
#608=DIRECTION('',(0.,0.,1.));
#609=FACE_BOUND('',#610,.T.);
#610=EDGE_LOOP('',(#911,#912,#913,#914));
#611=PLANE('',#612);
#612=AXIS2_PLACEMENT_3D('',#613,#614,#615);
#613=CARTESIAN_POINT('',(22.5,82.,4.93789272091838));
#614=DIRECTION('',(0.,0.,1.));
#615=DIRECTION('',(1.,0.,0.));
#616=FACE_BOUND('',#617,.T.);
#617=EDGE_LOOP('',(#915,#916,#917,#918));
#618=PLANE('',#619);
#619=AXIS2_PLACEMENT_3D('',#620,#621,#622);
#620=CARTESIAN_POINT('',(27.5,82.,4.93789272091838));
#621=DIRECTION('',(1.,0.,0.));
#622=DIRECTION('',(0.,0.,-1.));
#623=FACE_BOUND('',#624,.T.);
#624=EDGE_LOOP('',(#919,#920,#921,#922));
#625=PLANE('',#626);
#626=AXIS2_PLACEMENT_3D('',#627,#628,#629);
#627=CARTESIAN_POINT('',(3.76578890737811E-15,-92.,20.5));
#628=DIRECTION('',(0.,-1.,0.));
#629=DIRECTION('',(-1.83697019872103E-16,0.,-1.));
#630=FACE_BOUND('',#631,.T.);
#631=EDGE_LOOP('',(#923,#924,#925,#926));
#632=FACE_BOUND('',#633,.T.);
#633=EDGE_LOOP('',(#927));
#634=FACE_BOUND('',#635,.T.);
#635=EDGE_LOOP('',(#928));
#636=FACE_BOUND('',#637,.T.);
#637=EDGE_LOOP('',(#929));
#638=FACE_BOUND('',#639,.T.);
#639=EDGE_LOOP('',(#930));
#640=FACE_BOUND('',#641,.T.);
#641=EDGE_LOOP('',(#931));
#642=PLANE('',#643);
#643=AXIS2_PLACEMENT_3D('',#644,#645,#646);
#644=CARTESIAN_POINT('',(13.,0.,-2.38806125833734E-15));
#645=DIRECTION('',(-1.,0.,1.83697019872103E-16));
#646=DIRECTION('',(-1.12481983699639E-32,1.,-6.12323399573677E-17));
#647=FACE_BOUND('',#648,.T.);
#648=EDGE_LOOP('',(#932,#933,#934,#935));
#649=PLANE('',#650);
#650=AXIS2_PLACEMENT_3D('',#651,#652,#653);
#651=CARTESIAN_POINT('',(0.,-43.,3.4160708450005E-16));
#652=DIRECTION('',(0.,-1.,0.));
#653=DIRECTION('',(6.12323399573677E-17,0.,1.));
#654=FACE_BOUND('',#655,.T.);
#655=EDGE_LOOP('',(#936,#937,#938,#939));
#656=FACE_BOUND('',#657,.T.);
#657=EDGE_LOOP('',(#940));
#658=FACE_BOUND('',#659,.T.);
#659=EDGE_LOOP('',(#941));
#660=FACE_BOUND('',#661,.T.);
#661=EDGE_LOOP('',(#942));
#662=FACE_BOUND('',#663,.T.);
#663=EDGE_LOOP('',(#943));
#664=FACE_BOUND('',#665,.T.);
#665=EDGE_LOOP('',(#944));
#666=PLANE('',#667);
#667=AXIS2_PLACEMENT_3D('',#668,#669,#670);
#668=CARTESIAN_POINT('',(-2.,0.,3.67394039744206E-16));
#669=DIRECTION('',(1.,0.,-1.83697019872103E-16));
#670=DIRECTION('',(1.12481983699639E-32,1.,6.12323399573677E-17));
#671=FACE_OUTER_BOUND('',#672,.T.);
#672=EDGE_LOOP('',(#945));
#673=FACE_OUTER_BOUND('',#674,.T.);
#674=EDGE_LOOP('',(#946));
#675=CYLINDRICAL_SURFACE('',#676,4.);
#676=AXIS2_PLACEMENT_3D('',#677,#678,#679);
#677=CARTESIAN_POINT('',(23.,-73.8,-1.51842888620243E-16));
#678=DIRECTION('',(-1.,0.,1.83697019872103E-16));
#679=DIRECTION('',(-1.83697019872103E-16,0.,-1.));
#680=FACE_OUTER_BOUND('',#681,.T.);
#681=EDGE_LOOP('',(#947));
#682=FACE_OUTER_BOUND('',#683,.T.);
#683=EDGE_LOOP('',(#948));
#684=CYLINDRICAL_SURFACE('',#685,1.75);
#685=AXIS2_PLACEMENT_3D('',#686,#687,#688);
#686=CARTESIAN_POINT('',(23.,-82.6002326768913,8.34060717540548));
#687=DIRECTION('',(-1.,0.,1.83697019872103E-16));
#688=DIRECTION('',(-1.83697019872103E-16,0.,-1.));
#689=FACE_OUTER_BOUND('',#690,.T.);
#690=EDGE_LOOP('',(#949));
#691=FACE_OUTER_BOUND('',#692,.T.);
#692=EDGE_LOOP('',(#950));
#693=CYLINDRICAL_SURFACE('',#694,1.75);
#694=AXIS2_PLACEMENT_3D('',#695,#696,#697);
#695=CARTESIAN_POINT('',(23.,-82.6002326768913,-9.85939282459452));
#696=DIRECTION('',(-1.,0.,1.83697019872103E-16));
#697=DIRECTION('',(-1.83697019872103E-16,0.,-1.));
#698=FACE_OUTER_BOUND('',#699,.T.);
#699=EDGE_LOOP('',(#951));
#700=FACE_OUTER_BOUND('',#701,.T.);
#701=EDGE_LOOP('',(#952));
#702=CYLINDRICAL_SURFACE('',#703,1.75);
#703=AXIS2_PLACEMENT_3D('',#704,#705,#706);
#704=CARTESIAN_POINT('',(23.,-49.7002326768913,-9.85939282459452));
#705=DIRECTION('',(-1.,0.,1.83697019872103E-16));
#706=DIRECTION('',(-1.83697019872103E-16,0.,-1.));
#707=FACE_OUTER_BOUND('',#708,.T.);
#708=EDGE_LOOP('',(#953));
#709=FACE_OUTER_BOUND('',#710,.T.);
#710=EDGE_LOOP('',(#954));
#711=CYLINDRICAL_SURFACE('',#712,1.75);
#712=AXIS2_PLACEMENT_3D('',#713,#714,#715);
#713=CARTESIAN_POINT('',(23.,-49.7002326768913,8.34060717540548));
#714=DIRECTION('',(-1.,0.,1.83697019872103E-16));
#715=DIRECTION('',(-1.83697019872103E-16,0.,-1.));
#716=FACE_OUTER_BOUND('',#717,.T.);
#717=EDGE_LOOP('',(#955));
#718=FACE_OUTER_BOUND('',#719,.T.);
#719=EDGE_LOOP('',(#956));
#720=CYLINDRICAL_SURFACE('',#721,2.);
#721=AXIS2_PLACEMENT_3D('',#722,#723,#724);
#722=CARTESIAN_POINT('',(8.,-31.6149105635358,-8.9608098014238E-16));
#723=DIRECTION('',(-1.,0.,1.83697019872103E-16));
#724=DIRECTION('',(-1.12481983699639E-32,1.,-6.12323399573677E-17));
#725=FACE_OUTER_BOUND('',#726,.T.);
#726=EDGE_LOOP('',(#957));
#727=FACE_OUTER_BOUND('',#728,.T.);
#728=EDGE_LOOP('',(#958));
#729=CYLINDRICAL_SURFACE('',#730,2.);
#730=AXIS2_PLACEMENT_3D('',#731,#732,#733);
#731=CARTESIAN_POINT('',(8.,-16.6149105635358,-1.84872827941533E-16));
#732=DIRECTION('',(-1.,0.,1.83697019872103E-16));
#733=DIRECTION('',(-1.12481983699639E-32,1.,-6.12323399573677E-17));
#734=FACE_OUTER_BOUND('',#735,.T.);
#735=EDGE_LOOP('',(#959));
#736=FACE_OUTER_BOUND('',#737,.T.);
#737=EDGE_LOOP('',(#960));
#738=CYLINDRICAL_SURFACE('',#739,2.);
#739=AXIS2_PLACEMENT_3D('',#740,#741,#742);
#740=CARTESIAN_POINT('',(8.,-1.61491056353583,-1.50840437971606E-15));
#741=DIRECTION('',(-1.,0.,1.83697019872103E-16));
#742=DIRECTION('',(-1.12481983699639E-32,1.,-6.12323399573677E-17));
#743=FACE_OUTER_BOUND('',#744,.T.);
#744=EDGE_LOOP('',(#961));
#745=FACE_OUTER_BOUND('',#746,.T.);
#746=EDGE_LOOP('',(#962));
#747=CYLINDRICAL_SURFACE('',#748,2.);
#748=AXIS2_PLACEMENT_3D('',#749,#750,#751);
#749=CARTESIAN_POINT('',(8.,67.0046675281195,-1.47528611445934E-15));
#750=DIRECTION('',(-1.,0.,1.83697019872103E-16));
#751=DIRECTION('',(-1.12481983699639E-32,1.,-6.12323399573677E-17));
#752=FACE_OUTER_BOUND('',#753,.T.);
#753=EDGE_LOOP('',(#963));
#754=FACE_OUTER_BOUND('',#755,.T.);
#755=EDGE_LOOP('',(#964));
#756=CYLINDRICAL_SURFACE('',#757,2.);
#757=AXIS2_PLACEMENT_3D('',#758,#759,#760);
#758=CARTESIAN_POINT('',(8.,75.5046675281195,-5.82557015037905E-15));
#759=DIRECTION('',(-1.,0.,1.83697019872103E-16));
#760=DIRECTION('',(-1.12481983699639E-32,1.,-6.12323399573677E-17));
#761=ORIENTED_EDGE('',*,*,#965,.T.);
#762=ORIENTED_EDGE('',*,*,#966,.F.);
#763=ORIENTED_EDGE('',*,*,#967,.T.);
#764=ORIENTED_EDGE('',*,*,#968,.T.);
#765=ORIENTED_EDGE('',*,*,#969,.T.);
#766=ORIENTED_EDGE('',*,*,#970,.T.);
#767=ORIENTED_EDGE('',*,*,#971,.T.);
#768=ORIENTED_EDGE('',*,*,#966,.T.);
#769=ORIENTED_EDGE('',*,*,#972,.T.);
#770=ORIENTED_EDGE('',*,*,#973,.F.);
#771=ORIENTED_EDGE('',*,*,#974,.T.);
#772=ORIENTED_EDGE('',*,*,#975,.T.);
#773=ORIENTED_EDGE('',*,*,#976,.T.);
#774=ORIENTED_EDGE('',*,*,#975,.F.);
#775=ORIENTED_EDGE('',*,*,#977,.T.);
#776=ORIENTED_EDGE('',*,*,#978,.T.);
#777=ORIENTED_EDGE('',*,*,#979,.T.);
#778=ORIENTED_EDGE('',*,*,#978,.F.);
#779=ORIENTED_EDGE('',*,*,#980,.F.);
#780=ORIENTED_EDGE('',*,*,#981,.F.);
#781=ORIENTED_EDGE('',*,*,#982,.F.);
#782=ORIENTED_EDGE('',*,*,#983,.F.);
#783=ORIENTED_EDGE('',*,*,#984,.T.);
#784=ORIENTED_EDGE('',*,*,#985,.T.);
#785=ORIENTED_EDGE('',*,*,#986,.T.);
#786=ORIENTED_EDGE('',*,*,#987,.T.);
#787=ORIENTED_EDGE('',*,*,#988,.T.);
#788=ORIENTED_EDGE('',*,*,#989,.T.);
#789=ORIENTED_EDGE('',*,*,#984,.F.);
#790=ORIENTED_EDGE('',*,*,#990,.F.);
#791=ORIENTED_EDGE('',*,*,#991,.T.);
#792=ORIENTED_EDGE('',*,*,#992,.T.);
#793=ORIENTED_EDGE('',*,*,#993,.T.);
#794=ORIENTED_EDGE('',*,*,#994,.T.);
#795=ORIENTED_EDGE('',*,*,#995,.T.);
#796=ORIENTED_EDGE('',*,*,#996,.T.);
#797=ORIENTED_EDGE('',*,*,#991,.F.);
#798=ORIENTED_EDGE('',*,*,#997,.F.);
#799=ORIENTED_EDGE('',*,*,#998,.F.);
#800=ORIENTED_EDGE('',*,*,#999,.F.);
#801=ORIENTED_EDGE('',*,*,#1000,.T.);
#802=ORIENTED_EDGE('',*,*,#970,.F.);
#803=ORIENTED_EDGE('',*,*,#1001,.T.);
#804=ORIENTED_EDGE('',*,*,#1002,.F.);
#805=ORIENTED_EDGE('',*,*,#1003,.F.);
#806=ORIENTED_EDGE('',*,*,#1004,.F.);
#807=ORIENTED_EDGE('',*,*,#1005,.F.);
#808=ORIENTED_EDGE('',*,*,#1006,.T.);
#809=ORIENTED_EDGE('',*,*,#1007,.T.);
#810=ORIENTED_EDGE('',*,*,#1008,.T.);
#811=ORIENTED_EDGE('',*,*,#1009,.T.);
#812=ORIENTED_EDGE('',*,*,#1007,.F.);
#813=ORIENTED_EDGE('',*,*,#1010,.T.);
#814=ORIENTED_EDGE('',*,*,#1011,.T.);
#815=ORIENTED_EDGE('',*,*,#1012,.T.);
#816=ORIENTED_EDGE('',*,*,#1013,.T.);
#817=ORIENTED_EDGE('',*,*,#1014,.T.);
#818=ORIENTED_EDGE('',*,*,#1015,.T.);
#819=ORIENTED_EDGE('',*,*,#1016,.T.);
#820=ORIENTED_EDGE('',*,*,#968,.F.);
#821=ORIENTED_EDGE('',*,*,#1017,.F.);
#822=ORIENTED_EDGE('',*,*,#973,.T.);
#823=ORIENTED_EDGE('',*,*,#1018,.T.);
#824=ORIENTED_EDGE('',*,*,#1019,.T.);
#825=ORIENTED_EDGE('',*,*,#1020,.T.);
#826=ORIENTED_EDGE('',*,*,#1002,.T.);
#827=ORIENTED_EDGE('',*,*,#1021,.T.);
#828=ORIENTED_EDGE('',*,*,#1022,.T.);
#829=ORIENTED_EDGE('',*,*,#1011,.F.);
#830=ORIENTED_EDGE('',*,*,#1023,.T.);
#831=ORIENTED_EDGE('',*,*,#1024,.F.);
#832=ORIENTED_EDGE('',*,*,#1025,.F.);
#833=ORIENTED_EDGE('',*,*,#1026,.T.);
#834=ORIENTED_EDGE('',*,*,#1019,.F.);
#835=ORIENTED_EDGE('',*,*,#1027,.T.);
#836=ORIENTED_EDGE('',*,*,#1028,.T.);
#837=ORIENTED_EDGE('',*,*,#1029,.T.);
#838=ORIENTED_EDGE('',*,*,#1030,.T.);
#839=ORIENTED_EDGE('',*,*,#1022,.F.);
#840=ORIENTED_EDGE('',*,*,#1031,.T.);
#841=ORIENTED_EDGE('',*,*,#989,.F.);
#842=ORIENTED_EDGE('',*,*,#1032,.T.);
#843=ORIENTED_EDGE('',*,*,#1008,.F.);
#844=ORIENTED_EDGE('',*,*,#1009,.F.);
#845=ORIENTED_EDGE('',*,*,#1021,.F.);
#846=ORIENTED_EDGE('',*,*,#1018,.F.);
#847=ORIENTED_EDGE('',*,*,#972,.F.);
#848=ORIENTED_EDGE('',*,*,#976,.F.);
#849=ORIENTED_EDGE('',*,*,#979,.F.);
#850=ORIENTED_EDGE('',*,*,#1031,.F.);
#851=ORIENTED_EDGE('',*,*,#1016,.F.);
#852=ORIENTED_EDGE('',*,*,#1001,.F.);
#853=ORIENTED_EDGE('',*,*,#1032,.F.);
#854=ORIENTED_EDGE('',*,*,#996,.F.);
#855=ORIENTED_EDGE('',*,*,#969,.F.);
#856=ORIENTED_EDGE('',*,*,#965,.F.);
#857=ORIENTED_EDGE('',*,*,#967,.F.);
#858=ORIENTED_EDGE('',*,*,#971,.F.);
#859=ORIENTED_EDGE('',*,*,#1000,.F.);
#860=ORIENTED_EDGE('',*,*,#1033,.F.);
#861=ORIENTED_EDGE('',*,*,#980,.T.);
#862=ORIENTED_EDGE('',*,*,#977,.F.);
#863=ORIENTED_EDGE('',*,*,#974,.F.);
#864=ORIENTED_EDGE('',*,*,#1017,.T.);
#865=ORIENTED_EDGE('',*,*,#981,.T.);
#866=ORIENTED_EDGE('',*,*,#1033,.T.);
#867=ORIENTED_EDGE('',*,*,#999,.T.);
#868=ORIENTED_EDGE('',*,*,#1034,.F.);
#869=ORIENTED_EDGE('',*,*,#1035,.T.);
#870=ORIENTED_EDGE('',*,*,#1036,.T.);
#871=ORIENTED_EDGE('',*,*,#1037,.T.);
#872=ORIENTED_EDGE('',*,*,#1038,.T.);
#873=ORIENTED_EDGE('',*,*,#1039,.T.);
#874=ORIENTED_EDGE('',*,*,#1034,.T.);
#875=ORIENTED_EDGE('',*,*,#998,.T.);
#876=ORIENTED_EDGE('',*,*,#1040,.T.);
#877=ORIENTED_EDGE('',*,*,#982,.T.);
#878=ORIENTED_EDGE('',*,*,#1040,.F.);
#879=ORIENTED_EDGE('',*,*,#997,.T.);
#880=ORIENTED_EDGE('',*,*,#990,.T.);
#881=ORIENTED_EDGE('',*,*,#983,.T.);
#882=ORIENTED_EDGE('',*,*,#1041,.T.);
#883=ORIENTED_EDGE('',*,*,#1042,.T.);
#884=ORIENTED_EDGE('',*,*,#1043,.T.);
#885=ORIENTED_EDGE('',*,*,#1044,.T.);
#886=ORIENTED_EDGE('',*,*,#1045,.T.);
#887=ORIENTED_EDGE('',*,*,#985,.F.);
#888=ORIENTED_EDGE('',*,*,#1046,.T.);
#889=ORIENTED_EDGE('',*,*,#1027,.F.);
#890=ORIENTED_EDGE('',*,*,#1047,.F.);
#891=ORIENTED_EDGE('',*,*,#986,.F.);
#892=ORIENTED_EDGE('',*,*,#1047,.T.);
#893=ORIENTED_EDGE('',*,*,#1030,.F.);
#894=ORIENTED_EDGE('',*,*,#1048,.F.);
#895=ORIENTED_EDGE('',*,*,#987,.F.);
#896=ORIENTED_EDGE('',*,*,#1048,.T.);
#897=ORIENTED_EDGE('',*,*,#1029,.F.);
#898=ORIENTED_EDGE('',*,*,#1049,.F.);
#899=ORIENTED_EDGE('',*,*,#988,.F.);
#900=ORIENTED_EDGE('',*,*,#1049,.T.);
#901=ORIENTED_EDGE('',*,*,#1028,.F.);
#902=ORIENTED_EDGE('',*,*,#1046,.F.);
#903=ORIENTED_EDGE('',*,*,#1012,.F.);
#904=ORIENTED_EDGE('',*,*,#1050,.F.);
#905=ORIENTED_EDGE('',*,*,#992,.F.);
#906=ORIENTED_EDGE('',*,*,#1051,.T.);
#907=ORIENTED_EDGE('',*,*,#1015,.F.);
#908=ORIENTED_EDGE('',*,*,#1052,.F.);
#909=ORIENTED_EDGE('',*,*,#993,.F.);
#910=ORIENTED_EDGE('',*,*,#1050,.T.);
#911=ORIENTED_EDGE('',*,*,#1014,.F.);
#912=ORIENTED_EDGE('',*,*,#1053,.F.);
#913=ORIENTED_EDGE('',*,*,#994,.F.);
#914=ORIENTED_EDGE('',*,*,#1052,.T.);
#915=ORIENTED_EDGE('',*,*,#1013,.F.);
#916=ORIENTED_EDGE('',*,*,#1051,.F.);
#917=ORIENTED_EDGE('',*,*,#995,.F.);
#918=ORIENTED_EDGE('',*,*,#1053,.T.);
#919=ORIENTED_EDGE('',*,*,#1003,.T.);
#920=ORIENTED_EDGE('',*,*,#1020,.F.);
#921=ORIENTED_EDGE('',*,*,#1026,.F.);
#922=ORIENTED_EDGE('',*,*,#1054,.F.);
#923=ORIENTED_EDGE('',*,*,#1055,.F.);
#924=ORIENTED_EDGE('',*,*,#1004,.T.);
#925=ORIENTED_EDGE('',*,*,#1054,.T.);
#926=ORIENTED_EDGE('',*,*,#1025,.T.);
#927=ORIENTED_EDGE('',*,*,#1056,.T.);
#928=ORIENTED_EDGE('',*,*,#1057,.T.);
#929=ORIENTED_EDGE('',*,*,#1058,.T.);
#930=ORIENTED_EDGE('',*,*,#1059,.T.);
#931=ORIENTED_EDGE('',*,*,#1060,.T.);
#932=ORIENTED_EDGE('',*,*,#1055,.T.);
#933=ORIENTED_EDGE('',*,*,#1024,.T.);
#934=ORIENTED_EDGE('',*,*,#1061,.T.);
#935=ORIENTED_EDGE('',*,*,#1005,.T.);
#936=ORIENTED_EDGE('',*,*,#1023,.F.);
#937=ORIENTED_EDGE('',*,*,#1010,.F.);
#938=ORIENTED_EDGE('',*,*,#1006,.F.);
#939=ORIENTED_EDGE('',*,*,#1061,.F.);
#940=ORIENTED_EDGE('',*,*,#1062,.T.);
#941=ORIENTED_EDGE('',*,*,#1063,.T.);
#942=ORIENTED_EDGE('',*,*,#1064,.T.);
#943=ORIENTED_EDGE('',*,*,#1065,.T.);
#944=ORIENTED_EDGE('',*,*,#1066,.T.);
#945=ORIENTED_EDGE('',*,*,#1035,.F.);
#946=ORIENTED_EDGE('',*,*,#1056,.F.);
#947=ORIENTED_EDGE('',*,*,#1036,.F.);
#948=ORIENTED_EDGE('',*,*,#1057,.F.);
#949=ORIENTED_EDGE('',*,*,#1037,.F.);
#950=ORIENTED_EDGE('',*,*,#1058,.F.);
#951=ORIENTED_EDGE('',*,*,#1038,.F.);
#952=ORIENTED_EDGE('',*,*,#1059,.F.);
#953=ORIENTED_EDGE('',*,*,#1039,.F.);
#954=ORIENTED_EDGE('',*,*,#1060,.F.);
#955=ORIENTED_EDGE('',*,*,#1041,.F.);
#956=ORIENTED_EDGE('',*,*,#1062,.F.);
#957=ORIENTED_EDGE('',*,*,#1042,.F.);
#958=ORIENTED_EDGE('',*,*,#1063,.F.);
#959=ORIENTED_EDGE('',*,*,#1043,.F.);
#960=ORIENTED_EDGE('',*,*,#1064,.F.);
#961=ORIENTED_EDGE('',*,*,#1044,.F.);
#962=ORIENTED_EDGE('',*,*,#1065,.F.);
#963=ORIENTED_EDGE('',*,*,#1045,.F.);
#964=ORIENTED_EDGE('',*,*,#1066,.F.);
#965=EDGE_CURVE('',#1067,#1068,#1069,.T.);
#966=EDGE_CURVE('',#1070,#1068,#1071,.T.);
#967=EDGE_CURVE('',#1070,#1072,#1073,.F.);
#968=EDGE_CURVE('',#1072,#1067,#1074,.T.);
#969=EDGE_CURVE('',#1068,#1075,#1076,.T.);
#970=EDGE_CURVE('',#1075,#1077,#1078,.F.);
#971=EDGE_CURVE('',#1077,#1070,#1079,.F.);
#972=EDGE_CURVE('',#1080,#1081,#1082,.T.);
#973=EDGE_CURVE('',#1083,#1081,#1084,.T.);
#974=EDGE_CURVE('',#1083,#1085,#1086,.F.);
#975=EDGE_CURVE('',#1085,#1080,#1087,.T.);
#976=EDGE_CURVE('',#1088,#1080,#1089,.T.);
#977=EDGE_CURVE('',#1085,#1090,#1091,.F.);
#978=EDGE_CURVE('',#1090,#1088,#1092,.F.);
#979=EDGE_CURVE('',#1093,#1088,#1094,.F.);
#980=EDGE_CURVE('',#1095,#1090,#1096,.T.);
#981=EDGE_CURVE('',#1097,#1095,#1098,.T.);
#982=EDGE_CURVE('',#1099,#1097,#1100,.T.);
#983=EDGE_CURVE('',#1101,#1099,#1102,.T.);
#984=EDGE_CURVE('',#1101,#1093,#1103,.T.);
#985=EDGE_CURVE('',#1104,#1105,#1106,.T.);
#986=EDGE_CURVE('',#1105,#1107,#1108,.T.);
#987=EDGE_CURVE('',#1107,#1109,#1110,.T.);
#988=EDGE_CURVE('',#1109,#1104,#1111,.T.);
#989=EDGE_CURVE('',#1112,#1093,#1113,.T.);
#990=EDGE_CURVE('',#1114,#1101,#1115,.T.);
#991=EDGE_CURVE('',#1114,#1112,#1116,.T.);
#992=EDGE_CURVE('',#1117,#1118,#1119,.T.);
#993=EDGE_CURVE('',#1118,#1120,#1121,.T.);
#994=EDGE_CURVE('',#1120,#1122,#1123,.T.);
#995=EDGE_CURVE('',#1122,#1117,#1124,.T.);
#996=EDGE_CURVE('',#1075,#1112,#1125,.F.);
#997=EDGE_CURVE('',#1126,#1114,#1127,.T.);
#998=EDGE_CURVE('',#1128,#1126,#1129,.T.);
#999=EDGE_CURVE('',#1130,#1128,#1131,.T.);
#1000=EDGE_CURVE('',#1130,#1077,#1132,.T.);
#1001=EDGE_CURVE('',#1133,#1134,#1135,.T.);
#1002=EDGE_CURVE('',#1136,#1134,#1137,.T.);
#1003=EDGE_CURVE('',#1138,#1136,#1139,.T.);
#1004=EDGE_CURVE('',#1140,#1138,#1141,.T.);
#1005=EDGE_CURVE('',#1142,#1140,#1143,.T.);
#1006=EDGE_CURVE('',#1142,#1144,#1145,.T.);
#1007=EDGE_CURVE('',#1144,#1146,#1147,.T.);
#1008=EDGE_CURVE('',#1146,#1133,#1148,.F.);
#1009=EDGE_CURVE('',#1149,#1146,#1150,.F.);
#1010=EDGE_CURVE('',#1144,#1151,#1152,.T.);
#1011=EDGE_CURVE('',#1151,#1149,#1153,.T.);
#1012=EDGE_CURVE('',#1154,#1155,#1156,.F.);
#1013=EDGE_CURVE('',#1155,#1157,#1158,.F.);
#1014=EDGE_CURVE('',#1157,#1159,#1160,.F.);
#1015=EDGE_CURVE('',#1159,#1154,#1161,.F.);
#1016=EDGE_CURVE('',#1134,#1067,#1162,.T.);
#1017=EDGE_CURVE('',#1083,#1072,#1163,.T.);
#1018=EDGE_CURVE('',#1081,#1164,#1165,.T.);
#1019=EDGE_CURVE('',#1164,#1166,#1167,.T.);
#1020=EDGE_CURVE('',#1166,#1136,#1168,.T.);
#1021=EDGE_CURVE('',#1164,#1169,#1170,.T.);
#1022=EDGE_CURVE('',#1169,#1149,#1171,.F.);
#1023=EDGE_CURVE('',#1151,#1172,#1173,.T.);
#1024=EDGE_CURVE('',#1174,#1172,#1175,.T.);
#1025=EDGE_CURVE('',#1176,#1174,#1177,.T.);
#1026=EDGE_CURVE('',#1176,#1166,#1178,.T.);
#1027=EDGE_CURVE('',#1179,#1180,#1181,.F.);
#1028=EDGE_CURVE('',#1180,#1182,#1183,.F.);
#1029=EDGE_CURVE('',#1182,#1184,#1185,.F.);
#1030=EDGE_CURVE('',#1184,#1179,#1186,.F.);
#1031=EDGE_CURVE('',#1169,#1093,#1187,.F.);
#1032=EDGE_CURVE('',#1112,#1133,#1188,.F.);
#1033=EDGE_CURVE('',#1095,#1130,#1189,.T.);
#1034=EDGE_CURVE('',#1097,#1128,#1190,.T.);
#1035=EDGE_CURVE('',#1191,#1191,#1192,.T.);
#1036=EDGE_CURVE('',#1193,#1193,#1194,.T.);
#1037=EDGE_CURVE('',#1195,#1195,#1196,.T.);
#1038=EDGE_CURVE('',#1197,#1197,#1198,.T.);
#1039=EDGE_CURVE('',#1199,#1199,#1200,.T.);
#1040=EDGE_CURVE('',#1126,#1099,#1201,.F.);
#1041=EDGE_CURVE('',#1202,#1202,#1203,.T.);
#1042=EDGE_CURVE('',#1204,#1204,#1205,.T.);
#1043=EDGE_CURVE('',#1206,#1206,#1207,.T.);
#1044=EDGE_CURVE('',#1208,#1208,#1209,.T.);
#1045=EDGE_CURVE('',#1210,#1210,#1211,.T.);
#1046=EDGE_CURVE('',#1104,#1180,#1212,.T.);
#1047=EDGE_CURVE('',#1105,#1179,#1213,.T.);
#1048=EDGE_CURVE('',#1107,#1184,#1214,.T.);
#1049=EDGE_CURVE('',#1109,#1182,#1215,.T.);
#1050=EDGE_CURVE('',#1118,#1154,#1216,.T.);
#1051=EDGE_CURVE('',#1117,#1155,#1217,.T.);
#1052=EDGE_CURVE('',#1120,#1159,#1218,.T.);
#1053=EDGE_CURVE('',#1122,#1157,#1219,.T.);
#1054=EDGE_CURVE('',#1138,#1176,#1220,.T.);
#1055=EDGE_CURVE('',#1140,#1174,#1221,.T.);
#1056=EDGE_CURVE('',#1222,#1222,#1223,.F.);
#1057=EDGE_CURVE('',#1224,#1224,#1225,.F.);
#1058=EDGE_CURVE('',#1226,#1226,#1227,.F.);
#1059=EDGE_CURVE('',#1228,#1228,#1229,.F.);
#1060=EDGE_CURVE('',#1230,#1230,#1231,.F.);
#1061=EDGE_CURVE('',#1172,#1142,#1232,.T.);
#1062=EDGE_CURVE('',#1233,#1233,#1234,.F.);
#1063=EDGE_CURVE('',#1235,#1235,#1236,.F.);
#1064=EDGE_CURVE('',#1237,#1237,#1238,.F.);
#1065=EDGE_CURVE('',#1239,#1239,#1240,.F.);
#1066=EDGE_CURVE('',#1241,#1241,#1242,.F.);
#1067=VERTEX_POINT('',#1243);
#1068=VERTEX_POINT('',#1244);
#1069=LINE('',#1245,#1246);
#1070=VERTEX_POINT('',#1248);
#1071=LINE('',#1249,#1250);
#1072=VERTEX_POINT('',#1252);
#1073=LINE('',#1253,#1254);
#1074=LINE('',#1256,#1257);
#1075=VERTEX_POINT('',#1259);
#1076=LINE('',#1260,#1261);
#1077=VERTEX_POINT('',#1263);
#1078=LINE('',#1264,#1265);
#1079=LINE('',#1267,#1268);
#1080=VERTEX_POINT('',#1270);
#1081=VERTEX_POINT('',#1271);
#1082=LINE('',#1272,#1273);
#1083=VERTEX_POINT('',#1275);
#1084=LINE('',#1276,#1277);
#1085=VERTEX_POINT('',#1279);
#1086=LINE('',#1280,#1281);
#1087=LINE('',#1283,#1284);
#1088=VERTEX_POINT('',#1286);
#1089=LINE('',#1287,#1288);
#1090=VERTEX_POINT('',#1290);
#1091=LINE('',#1291,#1292);
#1092=LINE('',#1294,#1295);
#1093=VERTEX_POINT('',#1297);
#1094=LINE('',#1298,#1299);
#1095=VERTEX_POINT('',#1301);
#1096=LINE('',#1302,#1303);
#1097=VERTEX_POINT('',#1305);
#1098=LINE('',#1306,#1307);
#1099=VERTEX_POINT('',#1309);
#1100=LINE('',#1310,#1311);
#1101=VERTEX_POINT('',#1313);
#1102=LINE('',#1314,#1315);
#1103=LINE('',#1317,#1318);
#1104=VERTEX_POINT('',#1320);
#1105=VERTEX_POINT('',#1321);
#1106=LINE('',#1322,#1323);
#1107=VERTEX_POINT('',#1325);
#1108=LINE('',#1326,#1327);
#1109=VERTEX_POINT('',#1329);
#1110=LINE('',#1330,#1331);
#1111=LINE('',#1333,#1334);
#1112=VERTEX_POINT('',#1336);
#1113=LINE('',#1337,#1338);
#1114=VERTEX_POINT('',#1340);
#1115=LINE('',#1341,#1342);
#1116=LINE('',#1344,#1345);
#1117=VERTEX_POINT('',#1347);
#1118=VERTEX_POINT('',#1348);
#1119=LINE('',#1349,#1350);
#1120=VERTEX_POINT('',#1352);
#1121=LINE('',#1353,#1354);
#1122=VERTEX_POINT('',#1356);
#1123=LINE('',#1357,#1358);
#1124=LINE('',#1360,#1361);
#1125=LINE('',#1363,#1364);
#1126=VERTEX_POINT('',#1366);
#1127=LINE('',#1367,#1368);
#1128=VERTEX_POINT('',#1370);
#1129=LINE('',#1371,#1372);
#1130=VERTEX_POINT('',#1374);
#1131=LINE('',#1375,#1376);
#1132=LINE('',#1378,#1379);
#1133=VERTEX_POINT('',#1381);
#1134=VERTEX_POINT('',#1382);
#1135=LINE('',#1383,#1384);
#1136=VERTEX_POINT('',#1386);
#1137=LINE('',#1387,#1388);
#1138=VERTEX_POINT('',#1390);
#1139=LINE('',#1391,#1392);
#1140=VERTEX_POINT('',#1394);
#1141=LINE('',#1395,#1396);
#1142=VERTEX_POINT('',#1398);
#1143=LINE('',#1399,#1400);
#1144=VERTEX_POINT('',#1402);
#1145=LINE('',#1403,#1404);
#1146=VERTEX_POINT('',#1406);
#1147=LINE('',#1407,#1408);
#1148=LINE('',#1410,#1411);
#1149=VERTEX_POINT('',#1413);
#1150=LINE('',#1414,#1415);
#1151=VERTEX_POINT('',#1417);
#1152=LINE('',#1418,#1419);
#1153=LINE('',#1421,#1422);
#1154=VERTEX_POINT('',#1424);
#1155=VERTEX_POINT('',#1425);
#1156=LINE('',#1426,#1427);
#1157=VERTEX_POINT('',#1429);
#1158=LINE('',#1430,#1431);
#1159=VERTEX_POINT('',#1433);
#1160=LINE('',#1434,#1435);
#1161=LINE('',#1437,#1438);
#1162=LINE('',#1440,#1441);
#1163=LINE('',#1443,#1444);
#1164=VERTEX_POINT('',#1446);
#1165=LINE('',#1447,#1448);
#1166=VERTEX_POINT('',#1450);
#1167=LINE('',#1451,#1452);
#1168=LINE('',#1454,#1455);
#1169=VERTEX_POINT('',#1457);
#1170=LINE('',#1458,#1459);
#1171=LINE('',#1461,#1462);
#1172=VERTEX_POINT('',#1464);
#1173=LINE('',#1465,#1466);
#1174=VERTEX_POINT('',#1468);
#1175=LINE('',#1469,#1470);
#1176=VERTEX_POINT('',#1472);
#1177=LINE('',#1473,#1474);
#1178=LINE('',#1476,#1477);
#1179=VERTEX_POINT('',#1479);
#1180=VERTEX_POINT('',#1480);
#1181=LINE('',#1481,#1482);
#1182=VERTEX_POINT('',#1484);
#1183=LINE('',#1485,#1486);
#1184=VERTEX_POINT('',#1488);
#1185=LINE('',#1489,#1490);
#1186=LINE('',#1492,#1493);
#1187=LINE('',#1495,#1496);
#1188=LINE('',#1498,#1499);
#1189=LINE('',#1501,#1502);
#1190=LINE('',#1504,#1505);
#1191=VERTEX_POINT('',#1507);
#1192=CIRCLE('',#1508,4.);
#1193=VERTEX_POINT('',#1512);
#1194=CIRCLE('',#1513,1.75);
#1195=VERTEX_POINT('',#1517);
#1196=CIRCLE('',#1518,1.75);
#1197=VERTEX_POINT('',#1522);
#1198=CIRCLE('',#1523,1.75);
#1199=VERTEX_POINT('',#1527);
#1200=CIRCLE('',#1528,1.75);
#1201=LINE('',#1532,#1533);
#1202=VERTEX_POINT('',#1535);
#1203=CIRCLE('',#1536,2.);
#1204=VERTEX_POINT('',#1540);
#1205=CIRCLE('',#1541,2.);
#1206=VERTEX_POINT('',#1545);
#1207=CIRCLE('',#1546,2.);
#1208=VERTEX_POINT('',#1550);
#1209=CIRCLE('',#1551,2.);
#1210=VERTEX_POINT('',#1555);
#1211=CIRCLE('',#1556,2.);
#1212=LINE('',#1560,#1561);
#1213=LINE('',#1563,#1564);
#1214=LINE('',#1566,#1567);
#1215=LINE('',#1569,#1570);
#1216=LINE('',#1572,#1573);
#1217=LINE('',#1575,#1576);
#1218=LINE('',#1578,#1579);
#1219=LINE('',#1581,#1582);
#1220=LINE('',#1584,#1585);
#1221=LINE('',#1587,#1588);
#1222=VERTEX_POINT('',#1590);
#1223=CIRCLE('',#1591,4.);
#1224=VERTEX_POINT('',#1595);
#1225=CIRCLE('',#1596,1.75);
#1226=VERTEX_POINT('',#1600);
#1227=CIRCLE('',#1601,1.75);
#1228=VERTEX_POINT('',#1605);
#1229=CIRCLE('',#1606,1.75);
#1230=VERTEX_POINT('',#1610);
#1231=CIRCLE('',#1611,1.75);
#1232=LINE('',#1615,#1616);
#1233=VERTEX_POINT('',#1618);
#1234=CIRCLE('',#1619,2.);
#1235=VERTEX_POINT('',#1623);
#1236=CIRCLE('',#1624,2.);
#1237=VERTEX_POINT('',#1628);
#1238=CIRCLE('',#1629,2.);
#1239=VERTEX_POINT('',#1633);
#1240=CIRCLE('',#1634,2.);
#1241=VERTEX_POINT('',#1638);
#1242=CIRCLE('',#1639,2.);
#1243=CARTESIAN_POINT('',(50.,90.,-18.8));
#1244=CARTESIAN_POINT('',(48.,90.,-18.8));
#1245=CARTESIAN_POINT('',(50.,90.,-18.8));
#1246=VECTOR('',#1247,1.);
#1247=DIRECTION('',(-1.,0.,1.77635683940025E-15));
#1248=CARTESIAN_POINT('',(48.,-90.,-18.8));
#1249=CARTESIAN_POINT('',(48.,-90.,-18.8));
#1250=VECTOR('',#1251,1.);
#1251=DIRECTION('',(0.,1.,0.));
#1252=CARTESIAN_POINT('',(50.,-90.,-18.8));
#1253=CARTESIAN_POINT('',(50.,-90.,-18.8));
#1254=VECTOR('',#1255,1.);
#1255=DIRECTION('',(-1.,0.,1.77635683940025E-15));
#1256=CARTESIAN_POINT('',(50.,-90.,-18.8));
#1257=VECTOR('',#1258,1.);
#1258=DIRECTION('',(0.,1.,0.));
#1259=CARTESIAN_POINT('',(48.,90.,-20.5));
#1260=CARTESIAN_POINT('',(48.,90.,-18.8));
#1261=VECTOR('',#1262,1.);
#1262=DIRECTION('',(0.,0.,-1.));
#1263=CARTESIAN_POINT('',(48.,-90.,-20.5));
#1264=CARTESIAN_POINT('',(48.,-90.,-20.5));
#1265=VECTOR('',#1266,1.);
#1266=DIRECTION('',(0.,1.,7.89491928622334E-17));
#1267=CARTESIAN_POINT('',(48.,-90.,-18.8));
#1268=VECTOR('',#1269,1.);
#1269=DIRECTION('',(0.,0.,-1.));
#1270=CARTESIAN_POINT('',(48.,90.,18.8));
#1271=CARTESIAN_POINT('',(50.,90.,18.8));
#1272=CARTESIAN_POINT('',(48.,90.,18.8));
#1273=VECTOR('',#1274,1.);
#1274=DIRECTION('',(1.,0.,-1.77635683940024E-15));
#1275=CARTESIAN_POINT('',(50.,-90.,18.8));
#1276=CARTESIAN_POINT('',(50.,-90.,18.8));
#1277=VECTOR('',#1278,1.);
#1278=DIRECTION('',(0.,1.,0.));
#1279=CARTESIAN_POINT('',(48.,-90.,18.8));
#1280=CARTESIAN_POINT('',(48.,-90.,18.8));
#1281=VECTOR('',#1282,1.);
#1282=DIRECTION('',(1.,0.,-1.77635683940025E-15));
#1283=CARTESIAN_POINT('',(48.,-90.,18.8));
#1284=VECTOR('',#1285,1.);
#1285=DIRECTION('',(0.,1.,0.));
#1286=CARTESIAN_POINT('',(48.,90.,20.5));
#1287=CARTESIAN_POINT('',(48.,90.,20.5));
#1288=VECTOR('',#1289,1.);
#1289=DIRECTION('',(0.,0.,-1.));
#1290=CARTESIAN_POINT('',(48.,-90.,20.5));
#1291=CARTESIAN_POINT('',(48.,-90.,20.5));
#1292=VECTOR('',#1293,1.);
#1293=DIRECTION('',(0.,0.,-1.));
#1294=CARTESIAN_POINT('',(48.,90.,20.5));
#1295=VECTOR('',#1296,1.);
#1296=DIRECTION('',(0.,-1.,-7.89491928622334E-17));
#1297=CARTESIAN_POINT('',(46.,90.,20.5));
#1298=CARTESIAN_POINT('',(48.,90.,20.5));
#1299=VECTOR('',#1300,1.);
#1300=DIRECTION('',(-1.,0.,0.));
#1301=CARTESIAN_POINT('',(15.,-90.,20.5));
#1302=CARTESIAN_POINT('',(15.,-90.,20.5));
#1303=VECTOR('',#1304,1.);
#1304=DIRECTION('',(1.,0.,-1.07657990266682E-16));
#1305=CARTESIAN_POINT('',(15.,-42.,20.5));
#1306=CARTESIAN_POINT('',(15.,-42.,20.5));
#1307=VECTOR('',#1308,1.);
#1308=DIRECTION('',(0.,-1.,-7.40148683083438E-17));
#1309=CARTESIAN_POINT('',(3.76578890737811E-15,-42.,20.5));
#1310=CARTESIAN_POINT('',(3.65925129308931E-15,-42.,20.5));
#1311=VECTOR('',#1312,1.);
#1312=DIRECTION('',(1.,0.,-2.368475785867E-16));
#1313=CARTESIAN_POINT('',(3.76578890737811E-15,90.,20.5));
#1314=CARTESIAN_POINT('',(3.76578890737811E-15,90.,20.5));
#1315=VECTOR('',#1316,1.);
#1316=DIRECTION('',(-5.97621897894706E-33,-1.,-8.07434927000114E-17));
#1317=CARTESIAN_POINT('',(3.76578890737811E-15,90.,20.5));
#1318=VECTOR('',#1319,1.);
#1319=DIRECTION('',(1.,0.,-3.08931624243522E-16));
#1320=CARTESIAN_POINT('',(7.5,76.2673556998433,20.5));
#1321=CARTESIAN_POINT('',(2.50000000000001,76.2673556998433,20.5));
#1322=CARTESIAN_POINT('',(7.50000000000001,76.2673556998433,20.5));
#1323=VECTOR('',#1324,1.);
#1324=DIRECTION('',(-1.,0.,0.));
#1325=CARTESIAN_POINT('',(2.5,66.2673556998433,20.5));
#1326=CARTESIAN_POINT('',(2.50000000000001,76.2673556998433,20.5));
#1327=VECTOR('',#1328,1.);
#1328=DIRECTION('',(-8.88178419700125E-17,-1.,-3.5527136788005E-16));
#1329=CARTESIAN_POINT('',(7.5,66.2673556998433,20.5));
#1330=CARTESIAN_POINT('',(2.5,66.2673556998433,20.5));
#1331=VECTOR('',#1332,1.);
#1332=DIRECTION('',(1.,0.,0.));
#1333=CARTESIAN_POINT('',(7.5,66.2673556998433,20.5));
#1334=VECTOR('',#1335,1.);
#1335=DIRECTION('',(8.88178419700125E-17,1.,3.5527136788005E-16));
#1336=CARTESIAN_POINT('',(46.,90.,-20.5));
#1337=CARTESIAN_POINT('',(46.,90.,-20.5));
#1338=VECTOR('',#1339,1.);
#1339=DIRECTION('',(0.,0.,1.));
#1340=CARTESIAN_POINT('',(-3.76578890737811E-15,90.,-20.5));
#1341=CARTESIAN_POINT('',(-3.76578890737811E-15,90.,-20.5));
#1342=VECTOR('',#1343,1.);
#1343=DIRECTION('',(1.83697019872103E-16,0.,1.));
#1344=CARTESIAN_POINT('',(-3.76578890737811E-15,90.,-20.5));
#1345=VECTOR('',#1346,1.);
#1346=DIRECTION('',(1.,0.,-1.54465812121761E-16));
#1347=CARTESIAN_POINT('',(27.5,90.,-5.06210727908162));
#1348=CARTESIAN_POINT('',(22.5,90.,-5.06210727908162));
#1349=CARTESIAN_POINT('',(27.5,90.,-5.06210727908163));
#1350=VECTOR('',#1351,1.);
#1351=DIRECTION('',(-1.,0.,1.77635683940025E-16));
#1352=CARTESIAN_POINT('',(22.5,90.,4.93789272091838));
#1353=CARTESIAN_POINT('',(22.5,90.,-5.06210727908162));
#1354=VECTOR('',#1355,1.);
#1355=DIRECTION('',(-3.5527136788005E-16,0.,1.));
#1356=CARTESIAN_POINT('',(27.5,90.,4.93789272091838));
#1357=CARTESIAN_POINT('',(22.5,90.,4.93789272091838));
#1358=VECTOR('',#1359,1.);
#1359=DIRECTION('',(1.,0.,0.));
#1360=CARTESIAN_POINT('',(27.5,90.,4.93789272091838));
#1361=VECTOR('',#1362,1.);
#1362=DIRECTION('',(3.5527136788005E-16,0.,-1.));
#1363=CARTESIAN_POINT('',(46.,90.,-20.5));
#1364=VECTOR('',#1365,1.);
#1365=DIRECTION('',(1.,0.,0.));
#1366=CARTESIAN_POINT('',(-3.76578890737811E-15,-42.,-20.5));
#1367=CARTESIAN_POINT('',(-3.76578890737811E-15,-42.,-20.5));
#1368=VECTOR('',#1369,1.);
#1369=DIRECTION('',(5.97621897894706E-33,1.,8.07434927000114E-17));
#1370=CARTESIAN_POINT('',(15.,-42.,-20.5));
#1371=CARTESIAN_POINT('',(15.,-42.,-20.5));
#1372=VECTOR('',#1373,1.);
#1373=DIRECTION('',(-1.,0.,4.736951571734E-16));
#1374=CARTESIAN_POINT('',(15.,-90.,-20.5));
#1375=CARTESIAN_POINT('',(15.,-90.,-20.5));
#1376=VECTOR('',#1377,1.);
#1377=DIRECTION('',(0.,1.,7.40148683083438E-17));
#1378=CARTESIAN_POINT('',(15.,-90.,-20.5));
#1379=VECTOR('',#1380,1.);
#1380=DIRECTION('',(1.,0.,-1.07657990266682E-16));
#1381=CARTESIAN_POINT('',(46.,90.,-22.5));
#1382=CARTESIAN_POINT('',(50.,90.,-22.5));
#1383=CARTESIAN_POINT('',(46.,90.,-22.5));
#1384=VECTOR('',#1385,1.);
#1385=DIRECTION('',(1.,0.,0.));
#1386=CARTESIAN_POINT('',(50.,-92.,-22.5));
#1387=CARTESIAN_POINT('',(50.,-92.,-22.5));
#1388=VECTOR('',#1389,1.);
#1389=DIRECTION('',(0.,1.,7.80816193142967E-17));
#1390=CARTESIAN_POINT('',(13.,-92.,-22.5));
#1391=CARTESIAN_POINT('',(13.,-92.,-22.5));
#1392=VECTOR('',#1393,1.);
#1393=DIRECTION('',(1.,0.,-9.60192886162297E-17));
#1394=CARTESIAN_POINT('',(13.,-43.,-22.5));
#1395=CARTESIAN_POINT('',(13.,-43.,-22.5));
#1396=VECTOR('',#1397,1.);
#1397=DIRECTION('',(0.,-1.,0.));
#1398=CARTESIAN_POINT('',(-1.99999999999999,-43.,-22.5));
#1399=CARTESIAN_POINT('',(-1.99999999999999,-43.,-22.5));
#1400=VECTOR('',#1401,1.);
#1401=DIRECTION('',(1.,0.,0.));
#1402=CARTESIAN_POINT('',(-2.,92.,-22.5));
#1403=CARTESIAN_POINT('',(-2.,-43.,-22.5));
#1404=VECTOR('',#1405,1.);
#1405=DIRECTION('',(-3.61850467285236E-17,1.,5.26327952414889E-17));
#1406=CARTESIAN_POINT('',(46.,92.,-22.5));
#1407=CARTESIAN_POINT('',(-2.,92.,-22.5));
#1408=VECTOR('',#1409,1.);
#1409=DIRECTION('',(1.,0.,-1.48029736616687E-16));
#1410=CARTESIAN_POINT('',(46.,90.,-22.5));
#1411=VECTOR('',#1412,1.);
#1412=DIRECTION('',(0.,1.,0.));
#1413=CARTESIAN_POINT('',(46.,92.,22.5));
#1414=CARTESIAN_POINT('',(46.,92.,-22.5));
#1415=VECTOR('',#1416,1.);
#1416=DIRECTION('',(0.,0.,1.));
#1417=CARTESIAN_POINT('',(-2.,92.,22.5));
#1418=CARTESIAN_POINT('',(-2.,92.,-22.5));
#1419=VECTOR('',#1420,1.);
#1420=DIRECTION('',(1.82570008493915E-16,0.,1.));
#1421=CARTESIAN_POINT('',(-2.,92.,22.5));
#1422=VECTOR('',#1423,1.);
#1423=DIRECTION('',(1.,0.,-1.48029736616688E-16));
#1424=CARTESIAN_POINT('',(22.5,92.,-5.06210727908162));
#1425=CARTESIAN_POINT('',(27.5,92.,-5.06210727908162));
#1426=CARTESIAN_POINT('',(27.5,92.,-5.06210727908163));
#1427=VECTOR('',#1428,1.);
#1428=DIRECTION('',(-1.,0.,1.77635683940025E-16));
#1429=CARTESIAN_POINT('',(27.5,92.,4.93789272091838));
#1430=CARTESIAN_POINT('',(27.5,92.,4.93789272091838));
#1431=VECTOR('',#1432,1.);
#1432=DIRECTION('',(3.5527136788005E-16,0.,-1.));
#1433=CARTESIAN_POINT('',(22.5,92.,4.93789272091838));
#1434=CARTESIAN_POINT('',(22.5,92.,4.93789272091838));
#1435=VECTOR('',#1436,1.);
#1436=DIRECTION('',(1.,0.,0.));
#1437=CARTESIAN_POINT('',(22.5,92.,-5.06210727908162));
#1438=VECTOR('',#1439,1.);
#1439=DIRECTION('',(-3.5527136788005E-16,0.,1.));
#1440=CARTESIAN_POINT('',(50.,90.,-22.5));
#1441=VECTOR('',#1442,1.);
#1442=DIRECTION('',(1.92038577232459E-15,0.,1.));
#1443=CARTESIAN_POINT('',(50.,-90.,18.8));
#1444=VECTOR('',#1445,1.);
#1445=DIRECTION('',(0.,0.,-1.));
#1446=CARTESIAN_POINT('',(50.,90.,22.5));
#1447=CARTESIAN_POINT('',(50.,90.,18.8));
#1448=VECTOR('',#1449,1.);
#1449=DIRECTION('',(3.84077154464919E-15,0.,1.));
#1450=CARTESIAN_POINT('',(50.,-92.,22.5));
#1451=CARTESIAN_POINT('',(50.,90.,22.5));
#1452=VECTOR('',#1453,1.);
#1453=DIRECTION('',(3.90408096571484E-17,-1.,-7.80816193142967E-17));
#1454=CARTESIAN_POINT('',(50.,-92.,22.5));
#1455=VECTOR('',#1456,1.);
#1456=DIRECTION('',(-3.15796771448933E-16,0.,-1.));
#1457=CARTESIAN_POINT('',(46.,90.,22.5));
#1458=CARTESIAN_POINT('',(50.,90.,22.5));
#1459=VECTOR('',#1460,1.);
#1460=DIRECTION('',(-1.,0.,0.));
#1461=CARTESIAN_POINT('',(46.,92.,22.5));
#1462=VECTOR('',#1463,1.);
#1463=DIRECTION('',(0.,-1.,0.));
#1464=CARTESIAN_POINT('',(-1.99999999999999,-43.,22.5));
#1465=CARTESIAN_POINT('',(-2.,92.,22.5));
#1466=VECTOR('',#1467,1.);
#1467=DIRECTION('',(1.97372982155583E-17,-1.,-1.05265590482978E-16));
#1468=CARTESIAN_POINT('',(13.,-43.,22.5));
#1469=CARTESIAN_POINT('',(13.,-43.,22.5));
#1470=VECTOR('',#1471,1.);
#1471=DIRECTION('',(-1.,0.,0.));
#1472=CARTESIAN_POINT('',(13.,-92.,22.5));
#1473=CARTESIAN_POINT('',(13.,-92.,22.5));
#1474=VECTOR('',#1475,1.);
#1475=DIRECTION('',(0.,1.,0.));
#1476=CARTESIAN_POINT('',(13.,-92.,22.5));
#1477=VECTOR('',#1478,1.);
#1478=DIRECTION('',(1.,0.,-2.88057865848689E-16));
#1479=CARTESIAN_POINT('',(2.50000000000001,76.2673556998433,22.5));
#1480=CARTESIAN_POINT('',(7.5,76.2673556998433,22.5));
#1481=CARTESIAN_POINT('',(7.50000000000001,76.2673556998433,22.5));
#1482=VECTOR('',#1483,1.);
#1483=DIRECTION('',(-1.,0.,0.));
#1484=CARTESIAN_POINT('',(7.5,66.2673556998433,22.5));
#1485=CARTESIAN_POINT('',(7.5,66.2673556998433,22.5));
#1486=VECTOR('',#1487,1.);
#1487=DIRECTION('',(8.88178419700125E-17,1.,3.5527136788005E-16));
#1488=CARTESIAN_POINT('',(2.50000000000001,66.2673556998433,22.5));
#1489=CARTESIAN_POINT('',(2.5,66.2673556998433,22.5));
#1490=VECTOR('',#1491,1.);
#1491=DIRECTION('',(1.,0.,0.));
#1492=CARTESIAN_POINT('',(2.50000000000001,76.2673556998433,22.5));
#1493=VECTOR('',#1494,1.);
#1494=DIRECTION('',(-8.88178419700125E-17,-1.,-3.5527136788005E-16));
#1495=CARTESIAN_POINT('',(46.,90.,20.5));
#1496=VECTOR('',#1497,1.);
#1497=DIRECTION('',(0.,0.,1.));
#1498=CARTESIAN_POINT('',(46.,90.,-22.5));
#1499=VECTOR('',#1500,1.);
#1500=DIRECTION('',(0.,0.,1.));
#1501=CARTESIAN_POINT('',(15.,-90.,20.5));
#1502=VECTOR('',#1503,1.);
#1503=DIRECTION('',(-1.73303106282951E-16,0.,-1.));
#1504=CARTESIAN_POINT('',(15.,-42.,20.5));
#1505=VECTOR('',#1506,1.);
#1506=DIRECTION('',(-1.73303106282951E-16,0.,-1.));
#1507=CARTESIAN_POINT('',(15.,-73.8,-4.));
#1508=AXIS2_PLACEMENT_3D('',#1509,#1510,#1511);
#1509=CARTESIAN_POINT('',(15.,-73.8,1.31773327035658E-15));
#1510=DIRECTION('',(-1.,0.,1.83697019872103E-16));
#1511=DIRECTION('',(-1.83697019872103E-16,0.,-1.));
#1512=CARTESIAN_POINT('',(15.,-82.6002326768913,6.59060717540548));
#1513=AXIS2_PLACEMENT_3D('',#1514,#1515,#1516);
#1514=CARTESIAN_POINT('',(15.,-82.6002326768913,8.34060717540548));
#1515=DIRECTION('',(-1.,0.,1.83697019872103E-16));
#1516=DIRECTION('',(-1.83697019872103E-16,0.,-1.));
#1517=CARTESIAN_POINT('',(15.,-82.6002326768913,-11.6093928245945));
#1518=AXIS2_PLACEMENT_3D('',#1519,#1520,#1521);
#1519=CARTESIAN_POINT('',(15.,-82.6002326768913,-9.85939282459452));
#1520=DIRECTION('',(-1.,0.,1.83697019872103E-16));
#1521=DIRECTION('',(-1.83697019872103E-16,0.,-1.));
#1522=CARTESIAN_POINT('',(15.,-49.7002326768913,-11.6093928245945));
#1523=AXIS2_PLACEMENT_3D('',#1524,#1525,#1526);
#1524=CARTESIAN_POINT('',(15.,-49.7002326768913,-9.85939282459452));
#1525=DIRECTION('',(-1.,0.,1.83697019872103E-16));
#1526=DIRECTION('',(-1.83697019872103E-16,0.,-1.));
#1527=CARTESIAN_POINT('',(15.,-49.7002326768913,6.59060717540548));
#1528=AXIS2_PLACEMENT_3D('',#1529,#1530,#1531);
#1529=CARTESIAN_POINT('',(15.,-49.7002326768913,8.34060717540548));
#1530=DIRECTION('',(-1.,0.,1.83697019872103E-16));
#1531=DIRECTION('',(-1.83697019872103E-16,0.,-1.));
#1532=CARTESIAN_POINT('',(3.6592512930893E-15,-42.,20.5));
#1533=VECTOR('',#1534,1.);
#1534=DIRECTION('',(-1.78500063077527E-16,0.,-1.));
#1535=CARTESIAN_POINT('',(0.,-29.6149105635358,6.9595985874918E-16));
#1536=AXIS2_PLACEMENT_3D('',#1537,#1538,#1539);
#1537=CARTESIAN_POINT('',(1.05349355262906E-31,-31.6149105635358,5.73495178834444E-16));
#1538=DIRECTION('',(-1.,0.,1.83697019872103E-16));
#1539=DIRECTION('',(-1.12481983699639E-32,1.,-6.12323399573677E-17));
#1540=CARTESIAN_POINT('',(0.,-14.6149105635358,1.40716801095003E-15));
#1541=AXIS2_PLACEMENT_3D('',#1542,#1543,#1544);
#1542=CARTESIAN_POINT('',(2.35996173330947E-31,-16.6149105635358,1.28470333103529E-15));
#1543=DIRECTION('',(-1.,0.,1.83697019872103E-16));
#1544=DIRECTION('',(-1.12481983699639E-32,1.,-6.12323399573677E-17));
#1545=CARTESIAN_POINT('',(0.,0.385089436464175,8.3636459175503E-17));
#1546=AXIS2_PLACEMENT_3D('',#1547,#1548,#1549);
#1547=CARTESIAN_POINT('',(-7.13262843673315E-33,-1.61491056353583,-3.88282207392323E-17));
#1548=DIRECTION('',(-1.,0.,1.83697019872103E-16));
#1549=DIRECTION('',(-1.12481983699639E-32,1.,-6.12323399573677E-17));
#1550=CARTESIAN_POINT('',(0.,69.0046675281195,1.16754724432218E-16));
#1551=AXIS2_PLACEMENT_3D('',#1552,#1553,#1554);
#1552=CARTESIAN_POINT('',(-1.04890180574068E-33,67.0046675281195,-5.70995548251689E-18));
#1553=DIRECTION('',(-1.,0.,1.83697019872103E-16));
#1554=DIRECTION('',(-1.12481983699639E-32,1.,-6.12323399573677E-17));
#1555=CARTESIAN_POINT('',(0.,77.5046675281195,-4.23352931148749E-15));
#1556=AXIS2_PLACEMENT_3D('',#1557,#1558,#1559);
#1557=CARTESIAN_POINT('',(-8.00183114801376E-31,75.5046675281195,-4.35599399140222E-15));
#1558=DIRECTION('',(-1.,0.,1.83697019872103E-16));
#1559=DIRECTION('',(-1.12481983699639E-32,1.,-6.12323399573677E-17));
#1560=CARTESIAN_POINT('',(7.5,76.2673556998433,20.5));
#1561=VECTOR('',#1562,1.);
#1562=DIRECTION('',(8.88178419700125E-16,0.,1.));
#1563=CARTESIAN_POINT('',(2.50000000000001,76.2673556998433,20.5));
#1564=VECTOR('',#1565,1.);
#1565=DIRECTION('',(0.,0.,1.));
#1566=CARTESIAN_POINT('',(2.5,66.2673556998433,20.5));
#1567=VECTOR('',#1568,1.);
#1568=DIRECTION('',(2.22044604925031E-16,0.,1.));
#1569=CARTESIAN_POINT('',(7.5,66.2673556998433,20.5));
#1570=VECTOR('',#1571,1.);
#1571=DIRECTION('',(8.88178419700125E-16,0.,1.));
#1572=CARTESIAN_POINT('',(22.5,90.,-5.06210727908162));
#1573=VECTOR('',#1574,1.);
#1574=DIRECTION('',(0.,1.,0.));
#1575=CARTESIAN_POINT('',(27.5,90.,-5.06210727908162));
#1576=VECTOR('',#1577,1.);
#1577=DIRECTION('',(0.,1.,0.));
#1578=CARTESIAN_POINT('',(22.5,90.,4.93789272091838));
#1579=VECTOR('',#1580,1.);
#1580=DIRECTION('',(0.,1.,0.));
#1581=CARTESIAN_POINT('',(27.5,90.,4.93789272091838));
#1582=VECTOR('',#1583,1.);
#1583=DIRECTION('',(0.,1.,0.));
#1584=CARTESIAN_POINT('',(13.,-92.,-22.5));
#1585=VECTOR('',#1586,1.);
#1586=DIRECTION('',(1.57898385724467E-16,0.,1.));
#1587=CARTESIAN_POINT('',(13.,-43.,-22.5));
#1588=VECTOR('',#1589,1.);
#1589=DIRECTION('',(1.57898385724467E-16,0.,1.));
#1590=CARTESIAN_POINT('',(13.,-73.8,-4.));
#1591=AXIS2_PLACEMENT_3D('',#1592,#1593,#1594);
#1592=CARTESIAN_POINT('',(13.,-73.8,1.68512731010079E-15));
#1593=DIRECTION('',(-1.,0.,1.83697019872103E-16));
#1594=DIRECTION('',(-1.83697019872103E-16,0.,-1.));
#1595=CARTESIAN_POINT('',(13.,-82.6002326768913,6.59060717540548));
#1596=AXIS2_PLACEMENT_3D('',#1597,#1598,#1599);
#1597=CARTESIAN_POINT('',(13.,-82.6002326768913,8.34060717540548));
#1598=DIRECTION('',(-1.,0.,1.83697019872103E-16));
#1599=DIRECTION('',(-1.83697019872103E-16,0.,-1.));
#1600=CARTESIAN_POINT('',(13.,-82.6002326768913,-11.6093928245945));
#1601=AXIS2_PLACEMENT_3D('',#1602,#1603,#1604);
#1602=CARTESIAN_POINT('',(13.,-82.6002326768913,-9.85939282459452));
#1603=DIRECTION('',(-1.,0.,1.83697019872103E-16));
#1604=DIRECTION('',(-1.83697019872103E-16,0.,-1.));
#1605=CARTESIAN_POINT('',(13.,-49.7002326768913,-11.6093928245945));
#1606=AXIS2_PLACEMENT_3D('',#1607,#1608,#1609);
#1607=CARTESIAN_POINT('',(13.,-49.7002326768913,-9.85939282459452));
#1608=DIRECTION('',(-1.,0.,1.83697019872103E-16));
#1609=DIRECTION('',(-1.83697019872103E-16,0.,-1.));
#1610=CARTESIAN_POINT('',(13.,-49.7002326768913,6.59060717540548));
#1611=AXIS2_PLACEMENT_3D('',#1612,#1613,#1614);
#1612=CARTESIAN_POINT('',(13.,-49.7002326768913,8.34060717540548));
#1613=DIRECTION('',(-1.,0.,1.83697019872103E-16));
#1614=DIRECTION('',(-1.83697019872103E-16,0.,-1.));
#1615=CARTESIAN_POINT('',(-1.99999999999999,-43.,22.5));
#1616=VECTOR('',#1617,1.);
#1617=DIRECTION('',(-1.1842378929335E-16,0.,-1.));
#1618=CARTESIAN_POINT('',(-2.,-29.6149105635358,1.06335389849339E-15));
#1619=AXIS2_PLACEMENT_3D('',#1620,#1621,#1622);
#1620=CARTESIAN_POINT('',(-2.,-31.6149105635358,9.4088921857865E-16));
#1621=DIRECTION('',(-1.,0.,1.83697019872103E-16));
#1622=DIRECTION('',(-1.12481983699639E-32,1.,-6.12323399573677E-17));
#1623=CARTESIAN_POINT('',(-2.,-14.6149105635358,1.77456205069423E-15));
#1624=AXIS2_PLACEMENT_3D('',#1625,#1626,#1627);
#1625=CARTESIAN_POINT('',(-2.,-16.6149105635358,1.6520973707795E-15));
#1626=DIRECTION('',(-1.,0.,1.83697019872103E-16));
#1627=DIRECTION('',(-1.12481983699639E-32,1.,-6.12323399573677E-17));
#1628=CARTESIAN_POINT('',(-2.,0.385089436464175,4.51030498919709E-16));
#1629=AXIS2_PLACEMENT_3D('',#1630,#1631,#1632);
#1630=CARTESIAN_POINT('',(-2.,-1.61491056353583,3.28565819004974E-16));
#1631=DIRECTION('',(-1.,0.,1.83697019872103E-16));
#1632=DIRECTION('',(-1.12481983699639E-32,1.,-6.12323399573677E-17));
#1633=CARTESIAN_POINT('',(-2.,69.0046675281195,4.84148764176425E-16));
#1634=AXIS2_PLACEMENT_3D('',#1635,#1636,#1637);
#1635=CARTESIAN_POINT('',(-2.,67.0046675281195,3.61684084261689E-16));
#1636=DIRECTION('',(-1.,0.,1.83697019872103E-16));
#1637=DIRECTION('',(-1.12481983699639E-32,1.,-6.12323399573677E-17));
#1638=CARTESIAN_POINT('',(-2.,77.5046675281195,-3.86613527174328E-15));
#1639=AXIS2_PLACEMENT_3D('',#1640,#1641,#1642);
#1640=CARTESIAN_POINT('',(-2.,75.5046675281195,-3.98859995165802E-15));
#1641=DIRECTION('',(-1.,0.,1.83697019872103E-16));
#1642=DIRECTION('',(-1.12481983699639E-32,1.,-6.12323399573677E-17));
#1643=DRAUGHTING_MODEL('NONE',(#1649),#8);
#1644=PLANE('',#1645);
#1645=AXIS2_PLACEMENT_3D('',#1646,#1647,#1648);
#1646=CARTESIAN_POINT('',(-3.76578890737811E-15,90.,-20.5));
#1647=DIRECTION('',(1.,0.,-1.83697019872103E-16));
#1648=DIRECTION('',(1.83697019872103E-16,0.,1.));
#1649=ANNOTATION_PLANE('',(#1650),#1644,(#1681));
#1650=PRESENTATION_STYLE_ASSIGNMENT((#1652));
#1651=COLOUR_RGB('',0.,0.,0.);
#1652=CURVE_STYLE('',#1653,POSITIVE_LENGTH_MEASURE(0.1),#1651);
#1653=PRE_DEFINED_CURVE_FONT('continuous');
#1654=EXTERNALLY_DEFINED_TEXT_FONT(IDENTIFIER(''),#1655);
#1655=EXTERNAL_SOURCE(IDENTIFIER('GOST type A'));
#1656=TEXT_LITERAL_WITH_EXTENT('','41',#1658,'',.LEFT.,#1654,#1657);
#1657=PLANAR_EXTENT('',7.11166572570801,7.13581323623657);
#1658=AXIS2_PLACEMENT_3D('',#1659,#1660,#1661);
#1659=CARTESIAN_POINT('',(-6.53195900069568E-16,101.532357538814,-3.555832862854));
#1660=DIRECTION('',(1.,0.,-1.83697019872103E-16));
#1661=DIRECTION('',(1.83697019872103E-16,0.,1.));
#1662=(ANNOTATION_OCCURRENCE()ANNOTATION_TEXT_OCCURRENCE()DRAUGHTING_ANNOTATION_OCCURRENCE(
)GEOMETRIC_REPRESENTATION_ITEM()REPRESENTATION_ITEM('')STYLED_ITEM((#1663),#1656));
#1663=PRESENTATION_STYLE_ASSIGNMENT((#1664));
#1664=TEXT_STYLE_WITH_BOX_CHARACTERISTICS('',#1665,(BOX_SLANT_ANGLE(0.),BOX_ROTATE_ANGLE(
0.)));
#1665=TEXT_STYLE_FOR_DEFINED_FONT(#1666);
#1666=COLOUR_RGB('',0.,0.,0.);
#1667=EXTERNALLY_DEFINED_TEXT_FONT(IDENTIFIER(''),#1668);
#1668=EXTERNAL_SOURCE(IDENTIFIER(''));
#1669=AXIS2_PLACEMENT_3D('',#1670,#1671,#1672);
#1670=CARTESIAN_POINT('',(-3.76578890737811E-15,90.,-20.5));
#1671=DIRECTION('',(1.,0.,-1.83697019872103E-16));
#1672=DIRECTION('',(1.83697019872103E-16,0.,1.));
#1673=(DIMENSION_TEXT_ASSOCIATIVITY()REPRESENTATION_ITEM('')GEOMETRIC_REPRESENTATION_ITEM(
)TEXT_LITERAL('',#1669,'',.UNSPECIFIED.,#1667)MAPPED_ITEM(#1748,$));
#1674=(ANNOTATION_OCCURRENCE()ANNOTATION_TEXT_OCCURRENCE()DRAUGHTING_ANNOTATION_OCCURRENCE(
)GEOMETRIC_REPRESENTATION_ITEM()REPRESENTATION_ITEM('')STYLED_ITEM((#1675),#1673));
#1675=PRESENTATION_STYLE_ASSIGNMENT((#1676));
#1676=TEXT_STYLE_WITH_BOX_CHARACTERISTICS('',#1677,(BOX_SLANT_ANGLE(0.),BOX_ROTATE_ANGLE(
0.)));
#1677=TEXT_STYLE_FOR_DEFINED_FONT(#1678);
#1678=COLOUR_RGB('',0.,0.,0.);
#1679=REPRESENTATION_CONTEXT('NONE','NONE');
#1680=LINEAR_DIMENSION('\X2\041B0438043D04350439043D044B0439\X0\ \X2\044004300437043C04350440\X0\:1',
(#1662,#1674,#1687,#1697,#1707,#1712,#1724));
#1681=ANNOTATION_OCCURRENCE('',(#1682),#1680);
#1682=PRESENTATION_STYLE_ASSIGNMENT((#1684));
#1683=COLOUR_RGB('',0.,0.,0.);
#1684=CURVE_STYLE('',#1685,POSITIVE_LENGTH_MEASURE(0.1),#1683);
#1685=PRE_DEFINED_CURVE_FONT('continuous');
#1686=POLYLINE('',(#1753,#1754));
#1687=PROJECTION_CURVE('',(#1688),#1686);
#1688=PRESENTATION_STYLE_ASSIGNMENT((#1690));
#1689=COLOUR_RGB('',0.,0.,0.);
#1690=CURVE_STYLE('',#1691,POSITIVE_LENGTH_MEASURE(0.1),#1689);
#1691=PRE_DEFINED_CURVE_FONT('continuous');
#1692=SHAPE_ASPECT('','',#26,.F.);
#1693=PROPERTY_DEFINITION('NONE','NONE',#1692);
#1694=PROPERTY_DEFINITION_REPRESENTATION(#1693,#1695);
#1695=REPRESENTATION('NONE',(#1686),#1679);
#1696=POLYLINE('',(#1755,#1756));
#1697=PROJECTION_CURVE('',(#1698),#1696);
#1698=PRESENTATION_STYLE_ASSIGNMENT((#1700));
#1699=COLOUR_RGB('',0.,0.,0.);
#1700=CURVE_STYLE('',#1701,POSITIVE_LENGTH_MEASURE(0.1),#1699);
#1701=PRE_DEFINED_CURVE_FONT('continuous');
#1702=SHAPE_ASPECT('','',#26,.F.);
#1703=PROPERTY_DEFINITION('NONE','NONE',#1702);
#1704=PROPERTY_DEFINITION_REPRESENTATION(#1703,#1705);
#1705=REPRESENTATION('NONE',(#1696),#1679);
#1706=POLYLINE('',(#1757,#1758));
#1707=DIMENSION_CURVE('',(#1708),#1706);
#1708=PRESENTATION_STYLE_ASSIGNMENT((#1710));
#1709=COLOUR_RGB('',0.,0.,0.);
#1710=CURVE_STYLE('',#1711,POSITIVE_LENGTH_MEASURE(0.1),#1709);
#1711=PRE_DEFINED_CURVE_FONT('continuous');
#1712=TERMINATOR_SYMBOL('',(#1713),#1717,#1707);
#1713=PRESENTATION_STYLE_ASSIGNMENT((#1715));
#1714=COLOUR_RGB('',0.,0.,0.);
#1715=CURVE_STYLE('',#1716,POSITIVE_LENGTH_MEASURE(0.1),#1714);
#1716=PRE_DEFINED_CURVE_FONT('continuous');
#1717=DEFINED_SYMBOL('',#1718,#1719);
#1718=PRE_DEFINED_TERMINATOR_SYMBOL('filled arrow');
#1719=SYMBOL_TARGET('',#1720,1.025,1.025);
#1720=AXIS2_PLACEMENT_3D('',#1721,#1722,#1723);
#1721=CARTESIAN_POINT('',(-3.76578890737811E-15,104.066941107387,-20.5));
#1722=DIRECTION('',(1.,0.,-1.83697019872103E-16));
#1723=DIRECTION('',(1.83697019872103E-16,0.,1.));
#1724=TERMINATOR_SYMBOL('',(#1725),#1729,#1707);
#1725=PRESENTATION_STYLE_ASSIGNMENT((#1727));
#1726=COLOUR_RGB('',0.,0.,0.);
#1727=CURVE_STYLE('',#1728,POSITIVE_LENGTH_MEASURE(0.1),#1726);
#1728=PRE_DEFINED_CURVE_FONT('continuous');
#1729=DEFINED_SYMBOL('',#1730,#1731);
#1730=PRE_DEFINED_TERMINATOR_SYMBOL('filled arrow');
#1731=SYMBOL_TARGET('',#1732,1.025,1.025);
#1732=AXIS2_PLACEMENT_3D('',#1733,#1734,#1735);
#1733=CARTESIAN_POINT('',(3.76578890737811E-15,104.066941107387,20.5));
#1734=DIRECTION('',(1.,0.,-1.83697019872103E-16));
#1735=DIRECTION('',(-1.83697019872103E-16,0.,-1.));
#1736=SHAPE_DIMENSION_REPRESENTATION('NONE',(#1747),#8);
#1737=SHAPE_ASPECT('','',#26,.F.);
#1738=PROPERTY_DEFINITION('NONE','NONE',#1737);
#1739=PROPERTY_DEFINITION_REPRESENTATION(#1738,#1740);
#1740=REPRESENTATION('NONE',($),#8);
#1741=SHAPE_ASPECT('','',#26,.F.);
#1742=PROPERTY_DEFINITION('NONE','NONE',#1741);
#1743=PROPERTY_DEFINITION_REPRESENTATION(#1742,#1744);
#1744=REPRESENTATION('NONE',($),#8);
#1745=DIMENSIONAL_LOCATION('linear distance','',#1741,#1737);
#1746=DIMENSIONAL_CHARACTERISTIC_REPRESENTATION(#1745,#1736);
#1747=(LENGTH_MEASURE_WITH_UNIT()MEASURE_REPRESENTATION_ITEM()MEASURE_WITH_UNIT(
LENGTH_MEASURE(41.),#9)REPRESENTATION_ITEM('linear distance'));
#1748=REPRESENTATION_MAP($,#1736);
#1749=SHAPE_ASPECT_ASSOCIATIVITY('','',#1737,#1692);
#1750=SHAPE_ASPECT_ASSOCIATIVITY('','',#1741,#1702);
#1751=SHAPE_ASPECT('','',#26,.F.);
#1752=DRAUGHTING_MODEL_ITEM_ASSOCIATION('','',#1751,#1643,#1681);
#1753=CARTESIAN_POINT('',(-3.76578890737811E-15,90.,-20.5));
#1754=CARTESIAN_POINT('',(-3.76578890737811E-15,106.066941107387,-20.5));
#1755=CARTESIAN_POINT('',(3.76578890737811E-15,90.,20.5));
#1756=CARTESIAN_POINT('',(3.76578890737811E-15,106.066941107387,20.5));
#1757=CARTESIAN_POINT('',(-3.76578890737811E-15,104.066941107387,-20.5));
#1758=CARTESIAN_POINT('',(3.76578890737811E-15,104.066941107387,20.5));
ENDSEC;
END-ISO-10303-21;
